<?xml version="1.0" encoding="utf-8" standalone="no"?>
<!DOCTYPE svg PUBLIC "-//W3C//DTD SVG 1.1//EN"
  "http://www.w3.org/Graphics/SVG/1.1/DTD/svg11.dtd">
<svg xmlns:xlink="http://www.w3.org/1999/xlink" width="646.914062pt" height="510.362187pt" viewBox="0 0 646.914062 510.362187" xmlns="http://www.w3.org/2000/svg" version="1.1">
 <metadata>
  <rdf:RDF xmlns:dc="http://purl.org/dc/elements/1.1/" xmlns:cc="http://creativecommons.org/ns#" xmlns:rdf="http://www.w3.org/1999/02/22-rdf-syntax-ns#">
   <cc:Work>
    <dc:type rdf:resource="http://purl.org/dc/dcmitype/StillImage"/>
    <dc:date>2026-04-24T01:40:44.936614</dc:date>
    <dc:format>image/svg+xml</dc:format>
    <dc:creator>
     <cc:Agent>
      <dc:title>Matplotlib v3.9.2, https://matplotlib.org/</dc:title>
     </cc:Agent>
    </dc:creator>
   </cc:Work>
  </rdf:RDF>
 </metadata>
 <defs>
  <style type="text/css">*{stroke-linejoin: round; stroke-linecap: butt}</style>
 </defs>
 <g id="figure_1">
  <g id="patch_1">
   <path d="M 0 510.362187 
L 646.914062 510.362187 
L 646.914062 0 
L 0 0 
z
" style="fill: #ffffff"/>
  </g>
  <g id="axes_1">
   <g id="patch_2">
    <path d="M 165.414062 471.838125 
L 639.714063 471.838125 
L 639.714063 28.318125 
L 165.414062 28.318125 
z
" style="fill: #ffffff"/>
   </g>
   <g id="patch_3">
    <path d="M 440.885548 451.678125 
L 186.973153 451.678125 
L 186.973153 441.205398 
L 440.885548 441.205398 
z
" clip-path="url(#p97a7c059dc)" style="fill: #ca3c32"/>
   </g>
   <g id="patch_4">
    <path d="M 440.885548 438.587216 
L 230.603088 438.587216 
L 230.603088 428.114489 
L 440.885548 428.114489 
z
" clip-path="url(#p97a7c059dc)" style="fill: #ca3c32"/>
   </g>
   <g id="patch_5">
    <path d="M 440.885548 425.496307 
L 309.620084 425.496307 
L 309.620084 415.02358 
L 440.885548 415.02358 
z
" clip-path="url(#p97a7c059dc)" style="fill: #ca3c32"/>
   </g>
   <g id="patch_6">
    <path d="M 440.885548 412.405398 
L 325.537755 412.405398 
L 325.537755 401.93267 
L 440.885548 401.93267 
z
" clip-path="url(#p97a7c059dc)" style="fill: #ca3c32"/>
   </g>
   <g id="patch_7">
    <path d="M 440.885548 399.314489 
L 336.059119 399.314489 
L 336.059119 388.841761 
L 440.885548 388.841761 
z
" clip-path="url(#p97a7c059dc)" style="fill: #ca3c32"/>
   </g>
   <g id="patch_8">
    <path d="M 440.885548 386.22358 
L 345.748827 386.22358 
L 345.748827 375.750852 
L 440.885548 375.750852 
z
" clip-path="url(#p97a7c059dc)" style="fill: #ca3c32"/>
   </g>
   <g id="patch_9">
    <path d="M 440.885548 373.13267 
L 345.96565 373.13267 
L 345.96565 362.659943 
L 440.885548 362.659943 
z
" clip-path="url(#p97a7c059dc)" style="fill: #ca3c32"/>
   </g>
   <g id="patch_10">
    <path d="M 440.885548 360.041761 
L 356.083674 360.041761 
L 356.083674 349.569034 
L 440.885548 349.569034 
z
" clip-path="url(#p97a7c059dc)" style="fill: #ca3c32"/>
   </g>
   <g id="patch_11">
    <path d="M 440.885548 346.950852 
L 358.262233 346.950852 
L 358.262233 336.478125 
L 440.885548 336.478125 
z
" clip-path="url(#p97a7c059dc)" style="fill: #ca3c32"/>
   </g>
   <g id="patch_12">
    <path d="M 440.885548 333.859943 
L 393.107175 333.859943 
L 393.107175 323.387216 
L 440.885548 323.387216 
z
" clip-path="url(#p97a7c059dc)" style="fill: #ca3c32"/>
   </g>
   <g id="patch_13">
    <path d="M 440.885548 320.769034 
L 394.334974 320.769034 
L 394.334974 310.296307 
L 440.885548 310.296307 
z
" clip-path="url(#p97a7c059dc)" style="fill: #ca3c32"/>
   </g>
   <g id="patch_14">
    <path d="M 440.885548 307.678125 
L 400.457426 307.678125 
L 400.457426 297.205398 
L 440.885548 297.205398 
z
" clip-path="url(#p97a7c059dc)" style="fill: #ca3c32"/>
   </g>
   <g id="patch_15">
    <path d="M 440.885548 294.587216 
L 408.902779 294.587216 
L 408.902779 284.114489 
L 440.885548 284.114489 
z
" clip-path="url(#p97a7c059dc)" style="fill: #ca3c32"/>
   </g>
   <g id="patch_16">
    <path d="M 440.885548 281.496307 
L 420.536923 281.496307 
L 420.536923 271.02358 
L 440.885548 271.02358 
z
" clip-path="url(#p97a7c059dc)" style="fill: #ca3c32"/>
   </g>
   <g id="patch_17">
    <path d="M 440.885548 268.405398 
L 425.773665 268.405398 
L 425.773665 257.93267 
L 440.885548 257.93267 
z
" clip-path="url(#p97a7c059dc)" style="fill: #ca3c32"/>
   </g>
   <g id="patch_18">
    <path d="M 440.885548 255.314489 
L 431.05089 255.314489 
L 431.05089 244.841761 
L 440.885548 244.841761 
z
" clip-path="url(#p97a7c059dc)" style="fill: #ca3c32"/>
   </g>
   <g id="patch_19">
    <path d="M 440.885548 242.22358 
L 448.714429 242.22358 
L 448.714429 231.750852 
L 440.885548 231.750852 
z
" clip-path="url(#p97a7c059dc)" style="fill: #1f78b4"/>
   </g>
   <g id="patch_20">
    <path d="M 440.885548 229.13267 
L 457.170017 229.13267 
L 457.170017 218.659943 
L 440.885548 218.659943 
z
" clip-path="url(#p97a7c059dc)" style="fill: #1f78b4"/>
   </g>
   <g id="patch_21">
    <path d="M 440.885548 216.041761 
L 458.52014 216.041761 
L 458.52014 205.569034 
L 440.885548 205.569034 
z
" clip-path="url(#p97a7c059dc)" style="fill: #1f78b4"/>
   </g>
   <g id="patch_22">
    <path d="M 440.885548 202.950852 
L 460.211795 202.950852 
L 460.211795 192.478125 
L 440.885548 192.478125 
z
" clip-path="url(#p97a7c059dc)" style="fill: #1f78b4"/>
   </g>
   <g id="patch_23">
    <path d="M 440.885548 189.859943 
L 476.791902 189.859943 
L 476.791902 179.387216 
L 440.885548 179.387216 
z
" clip-path="url(#p97a7c059dc)" style="fill: #1f78b4"/>
   </g>
   <g id="patch_24">
    <path d="M 440.885548 176.769034 
L 481.4337 176.769034 
L 481.4337 166.296307 
L 440.885548 166.296307 
z
" clip-path="url(#p97a7c059dc)" style="fill: #1f78b4"/>
   </g>
   <g id="patch_25">
    <path d="M 440.885548 163.678125 
L 508.764607 163.678125 
L 508.764607 153.205398 
L 440.885548 153.205398 
z
" clip-path="url(#p97a7c059dc)" style="fill: #1f78b4"/>
   </g>
   <g id="patch_26">
    <path d="M 440.885548 150.587216 
L 524.967184 150.587216 
L 524.967184 140.114489 
L 440.885548 140.114489 
z
" clip-path="url(#p97a7c059dc)" style="fill: #1f78b4"/>
   </g>
   <g id="patch_27">
    <path d="M 440.885548 137.496307 
L 576.698 137.496307 
L 576.698 127.02358 
L 440.885548 127.02358 
z
" clip-path="url(#p97a7c059dc)" style="fill: #1f78b4"/>
   </g>
   <g id="patch_28">
    <path d="M 440.885548 124.405398 
L 579.298409 124.405398 
L 579.298409 113.93267 
L 440.885548 113.93267 
z
" clip-path="url(#p97a7c059dc)" style="fill: #1f78b4"/>
   </g>
   <g id="patch_29">
    <path d="M 440.885548 111.314489 
L 588.357461 111.314489 
L 588.357461 100.841761 
L 440.885548 100.841761 
z
" clip-path="url(#p97a7c059dc)" style="fill: #1f78b4"/>
   </g>
   <g id="patch_30">
    <path d="M 440.885548 98.22358 
L 603.627556 98.22358 
L 603.627556 87.750852 
L 440.885548 87.750852 
z
" clip-path="url(#p97a7c059dc)" style="fill: #1f78b4"/>
   </g>
   <g id="patch_31">
    <path d="M 440.885548 85.13267 
L 605.656177 85.13267 
L 605.656177 74.659943 
L 440.885548 74.659943 
z
" clip-path="url(#p97a7c059dc)" style="fill: #1f78b4"/>
   </g>
   <g id="patch_32">
    <path d="M 440.885548 72.041761 
L 610.068213 72.041761 
L 610.068213 61.569034 
L 440.885548 61.569034 
z
" clip-path="url(#p97a7c059dc)" style="fill: #1f78b4"/>
   </g>
   <g id="patch_33">
    <path d="M 440.885548 58.950852 
L 618.154972 58.950852 
L 618.154972 48.478125 
L 440.885548 48.478125 
z
" clip-path="url(#p97a7c059dc)" style="fill: #1f78b4"/>
   </g>
   <g id="matplotlib.axis_1">
    <g id="xtick_1">
     <g id="line2d_1">
      <path d="M 249.934086 471.838125 
L 249.934086 28.318125 
" clip-path="url(#p97a7c059dc)" style="fill: none; stroke: #b0b0b0; stroke-opacity: 0.25; stroke-width: 0.8; stroke-linecap: square"/>
     </g>
     <g id="line2d_2">
      <defs>
       <path id="m46d7297a83" d="M 0 0 
L 0 3.5 
" style="stroke: #000000; stroke-width: 0.8"/>
      </defs>
      <g>
       <use xlink:href="#m46d7297a83" x="249.934086" y="471.838125" style="stroke: #000000; stroke-width: 0.8"/>
      </g>
     </g>
     <g id="text_1">
      <!-- −2 -->
      <g transform="translate(242.562993 486.436562) scale(0.1 -0.1)">
       <defs>
        <path id="DejaVuSans-2212" d="M 678 2272 
L 4684 2272 
L 4684 1741 
L 678 1741 
L 678 2272 
z
" transform="scale(0.015625)"/>
        <path id="DejaVuSans-32" d="M 1228 531 
L 3431 531 
L 3431 0 
L 469 0 
L 469 531 
Q 828 903 1448 1529 
Q 2069 2156 2228 2338 
Q 2531 2678 2651 2914 
Q 2772 3150 2772 3378 
Q 2772 3750 2511 3984 
Q 2250 4219 1831 4219 
Q 1534 4219 1204 4116 
Q 875 4013 500 3803 
L 500 4441 
Q 881 4594 1212 4672 
Q 1544 4750 1819 4750 
Q 2544 4750 2975 4387 
Q 3406 4025 3406 3419 
Q 3406 3131 3298 2873 
Q 3191 2616 2906 2266 
Q 2828 2175 2409 1742 
Q 1991 1309 1228 531 
z
" transform="scale(0.015625)"/>
       </defs>
       <use xlink:href="#DejaVuSans-2212"/>
       <use xlink:href="#DejaVuSans-32" x="83.789062"/>
      </g>
     </g>
    </g>
    <g id="xtick_2">
     <g id="line2d_3">
      <path d="M 345.409817 471.838125 
L 345.409817 28.318125 
" clip-path="url(#p97a7c059dc)" style="fill: none; stroke: #b0b0b0; stroke-opacity: 0.25; stroke-width: 0.8; stroke-linecap: square"/>
     </g>
     <g id="line2d_4">
      <g>
       <use xlink:href="#m46d7297a83" x="345.409817" y="471.838125" style="stroke: #000000; stroke-width: 0.8"/>
      </g>
     </g>
     <g id="text_2">
      <!-- −1 -->
      <g transform="translate(338.038723 486.436562) scale(0.1 -0.1)">
       <defs>
        <path id="DejaVuSans-31" d="M 794 531 
L 1825 531 
L 1825 4091 
L 703 3866 
L 703 4441 
L 1819 4666 
L 2450 4666 
L 2450 531 
L 3481 531 
L 3481 0 
L 794 0 
L 794 531 
z
" transform="scale(0.015625)"/>
       </defs>
       <use xlink:href="#DejaVuSans-2212"/>
       <use xlink:href="#DejaVuSans-31" x="83.789062"/>
      </g>
     </g>
    </g>
    <g id="xtick_3">
     <g id="line2d_5">
      <path d="M 440.885548 471.838125 
L 440.885548 28.318125 
" clip-path="url(#p97a7c059dc)" style="fill: none; stroke: #b0b0b0; stroke-opacity: 0.25; stroke-width: 0.8; stroke-linecap: square"/>
     </g>
     <g id="line2d_6">
      <g>
       <use xlink:href="#m46d7297a83" x="440.885548" y="471.838125" style="stroke: #000000; stroke-width: 0.8"/>
      </g>
     </g>
     <g id="text_3">
      <!-- 0 -->
      <g transform="translate(437.704298 486.436562) scale(0.1 -0.1)">
       <defs>
        <path id="DejaVuSans-30" d="M 2034 4250 
Q 1547 4250 1301 3770 
Q 1056 3291 1056 2328 
Q 1056 1369 1301 889 
Q 1547 409 2034 409 
Q 2525 409 2770 889 
Q 3016 1369 3016 2328 
Q 3016 3291 2770 3770 
Q 2525 4250 2034 4250 
z
M 2034 4750 
Q 2819 4750 3233 4129 
Q 3647 3509 3647 2328 
Q 3647 1150 3233 529 
Q 2819 -91 2034 -91 
Q 1250 -91 836 529 
Q 422 1150 422 2328 
Q 422 3509 836 4129 
Q 1250 4750 2034 4750 
z
" transform="scale(0.015625)"/>
       </defs>
       <use xlink:href="#DejaVuSans-30"/>
      </g>
     </g>
    </g>
    <g id="xtick_4">
     <g id="line2d_7">
      <path d="M 536.361278 471.838125 
L 536.361278 28.318125 
" clip-path="url(#p97a7c059dc)" style="fill: none; stroke: #b0b0b0; stroke-opacity: 0.25; stroke-width: 0.8; stroke-linecap: square"/>
     </g>
     <g id="line2d_8">
      <g>
       <use xlink:href="#m46d7297a83" x="536.361278" y="471.838125" style="stroke: #000000; stroke-width: 0.8"/>
      </g>
     </g>
     <g id="text_4">
      <!-- 1 -->
      <g transform="translate(533.180028 486.436562) scale(0.1 -0.1)">
       <use xlink:href="#DejaVuSans-31"/>
      </g>
     </g>
    </g>
    <g id="xtick_5">
     <g id="line2d_9">
      <path d="M 631.837009 471.838125 
L 631.837009 28.318125 
" clip-path="url(#p97a7c059dc)" style="fill: none; stroke: #b0b0b0; stroke-opacity: 0.25; stroke-width: 0.8; stroke-linecap: square"/>
     </g>
     <g id="line2d_10">
      <g>
       <use xlink:href="#m46d7297a83" x="631.837009" y="471.838125" style="stroke: #000000; stroke-width: 0.8"/>
      </g>
     </g>
     <g id="text_5">
      <!-- 2 -->
      <g transform="translate(628.655759 486.436562) scale(0.1 -0.1)">
       <use xlink:href="#DejaVuSans-32"/>
      </g>
     </g>
    </g>
    <g id="text_6">
     <!-- HDBI z-score -->
     <g transform="translate(367.401875 500.874531) scale(0.11 -0.11)">
      <defs>
       <path id="DejaVuSans-48" d="M 628 4666 
L 1259 4666 
L 1259 2753 
L 3553 2753 
L 3553 4666 
L 4184 4666 
L 4184 0 
L 3553 0 
L 3553 2222 
L 1259 2222 
L 1259 0 
L 628 0 
L 628 4666 
z
" transform="scale(0.015625)"/>
       <path id="DejaVuSans-44" d="M 1259 4147 
L 1259 519 
L 2022 519 
Q 2988 519 3436 956 
Q 3884 1394 3884 2338 
Q 3884 3275 3436 3711 
Q 2988 4147 2022 4147 
L 1259 4147 
z
M 628 4666 
L 1925 4666 
Q 3281 4666 3915 4102 
Q 4550 3538 4550 2338 
Q 4550 1131 3912 565 
Q 3275 0 1925 0 
L 628 0 
L 628 4666 
z
" transform="scale(0.015625)"/>
       <path id="DejaVuSans-42" d="M 1259 2228 
L 1259 519 
L 2272 519 
Q 2781 519 3026 730 
Q 3272 941 3272 1375 
Q 3272 1813 3026 2020 
Q 2781 2228 2272 2228 
L 1259 2228 
z
M 1259 4147 
L 1259 2741 
L 2194 2741 
Q 2656 2741 2882 2914 
Q 3109 3088 3109 3444 
Q 3109 3797 2882 3972 
Q 2656 4147 2194 4147 
L 1259 4147 
z
M 628 4666 
L 2241 4666 
Q 2963 4666 3353 4366 
Q 3744 4066 3744 3513 
Q 3744 3084 3544 2831 
Q 3344 2578 2956 2516 
Q 3422 2416 3680 2098 
Q 3938 1781 3938 1306 
Q 3938 681 3513 340 
Q 3088 0 2303 0 
L 628 0 
L 628 4666 
z
" transform="scale(0.015625)"/>
       <path id="DejaVuSans-49" d="M 628 4666 
L 1259 4666 
L 1259 0 
L 628 0 
L 628 4666 
z
" transform="scale(0.015625)"/>
       <path id="DejaVuSans-20" transform="scale(0.015625)"/>
       <path id="DejaVuSans-7a" d="M 353 3500 
L 3084 3500 
L 3084 2975 
L 922 459 
L 3084 459 
L 3084 0 
L 275 0 
L 275 525 
L 2438 3041 
L 353 3041 
L 353 3500 
z
" transform="scale(0.015625)"/>
       <path id="DejaVuSans-2d" d="M 313 2009 
L 1997 2009 
L 1997 1497 
L 313 1497 
L 313 2009 
z
" transform="scale(0.015625)"/>
       <path id="DejaVuSans-73" d="M 2834 3397 
L 2834 2853 
Q 2591 2978 2328 3040 
Q 2066 3103 1784 3103 
Q 1356 3103 1142 2972 
Q 928 2841 928 2578 
Q 928 2378 1081 2264 
Q 1234 2150 1697 2047 
L 1894 2003 
Q 2506 1872 2764 1633 
Q 3022 1394 3022 966 
Q 3022 478 2636 193 
Q 2250 -91 1575 -91 
Q 1294 -91 989 -36 
Q 684 19 347 128 
L 347 722 
Q 666 556 975 473 
Q 1284 391 1588 391 
Q 1994 391 2212 530 
Q 2431 669 2431 922 
Q 2431 1156 2273 1281 
Q 2116 1406 1581 1522 
L 1381 1569 
Q 847 1681 609 1914 
Q 372 2147 372 2553 
Q 372 3047 722 3315 
Q 1072 3584 1716 3584 
Q 2034 3584 2315 3537 
Q 2597 3491 2834 3397 
z
" transform="scale(0.015625)"/>
       <path id="DejaVuSans-63" d="M 3122 3366 
L 3122 2828 
Q 2878 2963 2633 3030 
Q 2388 3097 2138 3097 
Q 1578 3097 1268 2742 
Q 959 2388 959 1747 
Q 959 1106 1268 751 
Q 1578 397 2138 397 
Q 2388 397 2633 464 
Q 2878 531 3122 666 
L 3122 134 
Q 2881 22 2623 -34 
Q 2366 -91 2075 -91 
Q 1284 -91 818 406 
Q 353 903 353 1747 
Q 353 2603 823 3093 
Q 1294 3584 2113 3584 
Q 2378 3584 2631 3529 
Q 2884 3475 3122 3366 
z
" transform="scale(0.015625)"/>
       <path id="DejaVuSans-6f" d="M 1959 3097 
Q 1497 3097 1228 2736 
Q 959 2375 959 1747 
Q 959 1119 1226 758 
Q 1494 397 1959 397 
Q 2419 397 2687 759 
Q 2956 1122 2956 1747 
Q 2956 2369 2687 2733 
Q 2419 3097 1959 3097 
z
M 1959 3584 
Q 2709 3584 3137 3096 
Q 3566 2609 3566 1747 
Q 3566 888 3137 398 
Q 2709 -91 1959 -91 
Q 1206 -91 779 398 
Q 353 888 353 1747 
Q 353 2609 779 3096 
Q 1206 3584 1959 3584 
z
" transform="scale(0.015625)"/>
       <path id="DejaVuSans-72" d="M 2631 2963 
Q 2534 3019 2420 3045 
Q 2306 3072 2169 3072 
Q 1681 3072 1420 2755 
Q 1159 2438 1159 1844 
L 1159 0 
L 581 0 
L 581 3500 
L 1159 3500 
L 1159 2956 
Q 1341 3275 1631 3429 
Q 1922 3584 2338 3584 
Q 2397 3584 2469 3576 
Q 2541 3569 2628 3553 
L 2631 2963 
z
" transform="scale(0.015625)"/>
       <path id="DejaVuSans-65" d="M 3597 1894 
L 3597 1613 
L 953 1613 
Q 991 1019 1311 708 
Q 1631 397 2203 397 
Q 2534 397 2845 478 
Q 3156 559 3463 722 
L 3463 178 
Q 3153 47 2828 -22 
Q 2503 -91 2169 -91 
Q 1331 -91 842 396 
Q 353 884 353 1716 
Q 353 2575 817 3079 
Q 1281 3584 2069 3584 
Q 2775 3584 3186 3129 
Q 3597 2675 3597 1894 
z
M 3022 2063 
Q 3016 2534 2758 2815 
Q 2500 3097 2075 3097 
Q 1594 3097 1305 2825 
Q 1016 2553 972 2059 
L 3022 2063 
z
" transform="scale(0.015625)"/>
      </defs>
      <use xlink:href="#DejaVuSans-48"/>
      <use xlink:href="#DejaVuSans-44" x="75.195312"/>
      <use xlink:href="#DejaVuSans-42" x="152.197266"/>
      <use xlink:href="#DejaVuSans-49" x="220.800781"/>
      <use xlink:href="#DejaVuSans-20" x="250.292969"/>
      <use xlink:href="#DejaVuSans-7a" x="282.080078"/>
      <use xlink:href="#DejaVuSans-2d" x="334.570312"/>
      <use xlink:href="#DejaVuSans-73" x="370.654297"/>
      <use xlink:href="#DejaVuSans-63" x="422.753906"/>
      <use xlink:href="#DejaVuSans-6f" x="477.734375"/>
      <use xlink:href="#DejaVuSans-72" x="538.916016"/>
      <use xlink:href="#DejaVuSans-65" x="577.779297"/>
     </g>
    </g>
   </g>
   <g id="matplotlib.axis_2">
    <g id="ytick_1">
     <g id="line2d_11">
      <defs>
       <path id="m274e78cd14" d="M 0 0 
L -3.5 0 
" style="stroke: #000000; stroke-width: 0.8"/>
      </defs>
      <g>
       <use xlink:href="#m274e78cd14" x="165.414062" y="446.441761" style="stroke: #000000; stroke-width: 0.8"/>
      </g>
     </g>
     <g id="text_7">
      <!-- Telangana -->
      <g transform="translate(107.667187 450.24098) scale(0.1 -0.1)">
       <defs>
        <path id="DejaVuSans-54" d="M -19 4666 
L 3928 4666 
L 3928 4134 
L 2272 4134 
L 2272 0 
L 1638 0 
L 1638 4134 
L -19 4134 
L -19 4666 
z
" transform="scale(0.015625)"/>
        <path id="DejaVuSans-6c" d="M 603 4863 
L 1178 4863 
L 1178 0 
L 603 0 
L 603 4863 
z
" transform="scale(0.015625)"/>
        <path id="DejaVuSans-61" d="M 2194 1759 
Q 1497 1759 1228 1600 
Q 959 1441 959 1056 
Q 959 750 1161 570 
Q 1363 391 1709 391 
Q 2188 391 2477 730 
Q 2766 1069 2766 1631 
L 2766 1759 
L 2194 1759 
z
M 3341 1997 
L 3341 0 
L 2766 0 
L 2766 531 
Q 2569 213 2275 61 
Q 1981 -91 1556 -91 
Q 1019 -91 701 211 
Q 384 513 384 1019 
Q 384 1609 779 1909 
Q 1175 2209 1959 2209 
L 2766 2209 
L 2766 2266 
Q 2766 2663 2505 2880 
Q 2244 3097 1772 3097 
Q 1472 3097 1187 3025 
Q 903 2953 641 2809 
L 641 3341 
Q 956 3463 1253 3523 
Q 1550 3584 1831 3584 
Q 2591 3584 2966 3190 
Q 3341 2797 3341 1997 
z
" transform="scale(0.015625)"/>
        <path id="DejaVuSans-6e" d="M 3513 2113 
L 3513 0 
L 2938 0 
L 2938 2094 
Q 2938 2591 2744 2837 
Q 2550 3084 2163 3084 
Q 1697 3084 1428 2787 
Q 1159 2491 1159 1978 
L 1159 0 
L 581 0 
L 581 3500 
L 1159 3500 
L 1159 2956 
Q 1366 3272 1645 3428 
Q 1925 3584 2291 3584 
Q 2894 3584 3203 3211 
Q 3513 2838 3513 2113 
z
" transform="scale(0.015625)"/>
        <path id="DejaVuSans-67" d="M 2906 1791 
Q 2906 2416 2648 2759 
Q 2391 3103 1925 3103 
Q 1463 3103 1205 2759 
Q 947 2416 947 1791 
Q 947 1169 1205 825 
Q 1463 481 1925 481 
Q 2391 481 2648 825 
Q 2906 1169 2906 1791 
z
M 3481 434 
Q 3481 -459 3084 -895 
Q 2688 -1331 1869 -1331 
Q 1566 -1331 1297 -1286 
Q 1028 -1241 775 -1147 
L 775 -588 
Q 1028 -725 1275 -790 
Q 1522 -856 1778 -856 
Q 2344 -856 2625 -561 
Q 2906 -266 2906 331 
L 2906 616 
Q 2728 306 2450 153 
Q 2172 0 1784 0 
Q 1141 0 747 490 
Q 353 981 353 1791 
Q 353 2603 747 3093 
Q 1141 3584 1784 3584 
Q 2172 3584 2450 3431 
Q 2728 3278 2906 2969 
L 2906 3500 
L 3481 3500 
L 3481 434 
z
" transform="scale(0.015625)"/>
       </defs>
       <use xlink:href="#DejaVuSans-54"/>
       <use xlink:href="#DejaVuSans-65" x="44.083984"/>
       <use xlink:href="#DejaVuSans-6c" x="105.607422"/>
       <use xlink:href="#DejaVuSans-61" x="133.390625"/>
       <use xlink:href="#DejaVuSans-6e" x="194.669922"/>
       <use xlink:href="#DejaVuSans-67" x="258.048828"/>
       <use xlink:href="#DejaVuSans-61" x="321.525391"/>
       <use xlink:href="#DejaVuSans-6e" x="382.804688"/>
       <use xlink:href="#DejaVuSans-61" x="446.183594"/>
      </g>
     </g>
    </g>
    <g id="ytick_2">
     <g id="line2d_12">
      <g>
       <use xlink:href="#m274e78cd14" x="165.414062" y="433.350852" style="stroke: #000000; stroke-width: 0.8"/>
      </g>
     </g>
     <g id="text_8">
      <!-- Chhattisgarh -->
      <g transform="translate(94.05 437.150071) scale(0.1 -0.1)">
       <defs>
        <path id="DejaVuSans-43" d="M 4122 4306 
L 4122 3641 
Q 3803 3938 3442 4084 
Q 3081 4231 2675 4231 
Q 1875 4231 1450 3742 
Q 1025 3253 1025 2328 
Q 1025 1406 1450 917 
Q 1875 428 2675 428 
Q 3081 428 3442 575 
Q 3803 722 4122 1019 
L 4122 359 
Q 3791 134 3420 21 
Q 3050 -91 2638 -91 
Q 1578 -91 968 557 
Q 359 1206 359 2328 
Q 359 3453 968 4101 
Q 1578 4750 2638 4750 
Q 3056 4750 3426 4639 
Q 3797 4528 4122 4306 
z
" transform="scale(0.015625)"/>
        <path id="DejaVuSans-68" d="M 3513 2113 
L 3513 0 
L 2938 0 
L 2938 2094 
Q 2938 2591 2744 2837 
Q 2550 3084 2163 3084 
Q 1697 3084 1428 2787 
Q 1159 2491 1159 1978 
L 1159 0 
L 581 0 
L 581 4863 
L 1159 4863 
L 1159 2956 
Q 1366 3272 1645 3428 
Q 1925 3584 2291 3584 
Q 2894 3584 3203 3211 
Q 3513 2838 3513 2113 
z
" transform="scale(0.015625)"/>
        <path id="DejaVuSans-74" d="M 1172 4494 
L 1172 3500 
L 2356 3500 
L 2356 3053 
L 1172 3053 
L 1172 1153 
Q 1172 725 1289 603 
Q 1406 481 1766 481 
L 2356 481 
L 2356 0 
L 1766 0 
Q 1100 0 847 248 
Q 594 497 594 1153 
L 594 3053 
L 172 3053 
L 172 3500 
L 594 3500 
L 594 4494 
L 1172 4494 
z
" transform="scale(0.015625)"/>
        <path id="DejaVuSans-69" d="M 603 3500 
L 1178 3500 
L 1178 0 
L 603 0 
L 603 3500 
z
M 603 4863 
L 1178 4863 
L 1178 4134 
L 603 4134 
L 603 4863 
z
" transform="scale(0.015625)"/>
       </defs>
       <use xlink:href="#DejaVuSans-43"/>
       <use xlink:href="#DejaVuSans-68" x="69.824219"/>
       <use xlink:href="#DejaVuSans-68" x="133.203125"/>
       <use xlink:href="#DejaVuSans-61" x="196.582031"/>
       <use xlink:href="#DejaVuSans-74" x="257.861328"/>
       <use xlink:href="#DejaVuSans-74" x="297.070312"/>
       <use xlink:href="#DejaVuSans-69" x="336.279297"/>
       <use xlink:href="#DejaVuSans-73" x="364.0625"/>
       <use xlink:href="#DejaVuSans-67" x="416.162109"/>
       <use xlink:href="#DejaVuSans-61" x="479.638672"/>
       <use xlink:href="#DejaVuSans-72" x="540.917969"/>
       <use xlink:href="#DejaVuSans-68" x="580.28125"/>
      </g>
     </g>
    </g>
    <g id="ytick_3">
     <g id="line2d_13">
      <g>
       <use xlink:href="#m274e78cd14" x="165.414062" y="420.259943" style="stroke: #000000; stroke-width: 0.8"/>
      </g>
     </g>
     <g id="text_9">
      <!-- Uttarakhand -->
      <g transform="translate(95.945312 424.059162) scale(0.1 -0.1)">
       <defs>
        <path id="DejaVuSans-55" d="M 556 4666 
L 1191 4666 
L 1191 1831 
Q 1191 1081 1462 751 
Q 1734 422 2344 422 
Q 2950 422 3222 751 
Q 3494 1081 3494 1831 
L 3494 4666 
L 4128 4666 
L 4128 1753 
Q 4128 841 3676 375 
Q 3225 -91 2344 -91 
Q 1459 -91 1007 375 
Q 556 841 556 1753 
L 556 4666 
z
" transform="scale(0.015625)"/>
        <path id="DejaVuSans-6b" d="M 581 4863 
L 1159 4863 
L 1159 1991 
L 2875 3500 
L 3609 3500 
L 1753 1863 
L 3688 0 
L 2938 0 
L 1159 1709 
L 1159 0 
L 581 0 
L 581 4863 
z
" transform="scale(0.015625)"/>
        <path id="DejaVuSans-64" d="M 2906 2969 
L 2906 4863 
L 3481 4863 
L 3481 0 
L 2906 0 
L 2906 525 
Q 2725 213 2448 61 
Q 2172 -91 1784 -91 
Q 1150 -91 751 415 
Q 353 922 353 1747 
Q 353 2572 751 3078 
Q 1150 3584 1784 3584 
Q 2172 3584 2448 3432 
Q 2725 3281 2906 2969 
z
M 947 1747 
Q 947 1113 1208 752 
Q 1469 391 1925 391 
Q 2381 391 2643 752 
Q 2906 1113 2906 1747 
Q 2906 2381 2643 2742 
Q 2381 3103 1925 3103 
Q 1469 3103 1208 2742 
Q 947 2381 947 1747 
z
" transform="scale(0.015625)"/>
       </defs>
       <use xlink:href="#DejaVuSans-55"/>
       <use xlink:href="#DejaVuSans-74" x="73.193359"/>
       <use xlink:href="#DejaVuSans-74" x="112.402344"/>
       <use xlink:href="#DejaVuSans-61" x="151.611328"/>
       <use xlink:href="#DejaVuSans-72" x="212.890625"/>
       <use xlink:href="#DejaVuSans-61" x="254.003906"/>
       <use xlink:href="#DejaVuSans-6b" x="315.283203"/>
       <use xlink:href="#DejaVuSans-68" x="373.193359"/>
       <use xlink:href="#DejaVuSans-61" x="436.572266"/>
       <use xlink:href="#DejaVuSans-6e" x="497.851562"/>
       <use xlink:href="#DejaVuSans-64" x="561.230469"/>
      </g>
     </g>
    </g>
    <g id="ytick_4">
     <g id="line2d_14">
      <g>
       <use xlink:href="#m274e78cd14" x="165.414062" y="407.169034" style="stroke: #000000; stroke-width: 0.8"/>
      </g>
     </g>
     <g id="text_10">
      <!-- Jharkhand -->
      <g transform="translate(107.945312 410.968253) scale(0.1 -0.1)">
       <defs>
        <path id="DejaVuSans-4a" d="M 628 4666 
L 1259 4666 
L 1259 325 
Q 1259 -519 939 -900 
Q 619 -1281 -91 -1281 
L -331 -1281 
L -331 -750 
L -134 -750 
Q 284 -750 456 -515 
Q 628 -281 628 325 
L 628 4666 
z
" transform="scale(0.015625)"/>
       </defs>
       <use xlink:href="#DejaVuSans-4a"/>
       <use xlink:href="#DejaVuSans-68" x="29.492188"/>
       <use xlink:href="#DejaVuSans-61" x="92.871094"/>
       <use xlink:href="#DejaVuSans-72" x="154.150391"/>
       <use xlink:href="#DejaVuSans-6b" x="195.263672"/>
       <use xlink:href="#DejaVuSans-68" x="253.173828"/>
       <use xlink:href="#DejaVuSans-61" x="316.552734"/>
       <use xlink:href="#DejaVuSans-6e" x="377.832031"/>
       <use xlink:href="#DejaVuSans-64" x="441.210938"/>
      </g>
     </g>
    </g>
    <g id="ytick_5">
     <g id="line2d_15">
      <g>
       <use xlink:href="#m274e78cd14" x="165.414062" y="394.078125" style="stroke: #000000; stroke-width: 0.8"/>
      </g>
     </g>
     <g id="text_11">
      <!-- Gujarat -->
      <g transform="translate(121.2625 397.877344) scale(0.1 -0.1)">
       <defs>
        <path id="DejaVuSans-47" d="M 3809 666 
L 3809 1919 
L 2778 1919 
L 2778 2438 
L 4434 2438 
L 4434 434 
Q 4069 175 3628 42 
Q 3188 -91 2688 -91 
Q 1594 -91 976 548 
Q 359 1188 359 2328 
Q 359 3472 976 4111 
Q 1594 4750 2688 4750 
Q 3144 4750 3555 4637 
Q 3966 4525 4313 4306 
L 4313 3634 
Q 3963 3931 3569 4081 
Q 3175 4231 2741 4231 
Q 1884 4231 1454 3753 
Q 1025 3275 1025 2328 
Q 1025 1384 1454 906 
Q 1884 428 2741 428 
Q 3075 428 3337 486 
Q 3600 544 3809 666 
z
" transform="scale(0.015625)"/>
        <path id="DejaVuSans-75" d="M 544 1381 
L 544 3500 
L 1119 3500 
L 1119 1403 
Q 1119 906 1312 657 
Q 1506 409 1894 409 
Q 2359 409 2629 706 
Q 2900 1003 2900 1516 
L 2900 3500 
L 3475 3500 
L 3475 0 
L 2900 0 
L 2900 538 
Q 2691 219 2414 64 
Q 2138 -91 1772 -91 
Q 1169 -91 856 284 
Q 544 659 544 1381 
z
M 1991 3584 
L 1991 3584 
z
" transform="scale(0.015625)"/>
        <path id="DejaVuSans-6a" d="M 603 3500 
L 1178 3500 
L 1178 -63 
Q 1178 -731 923 -1031 
Q 669 -1331 103 -1331 
L -116 -1331 
L -116 -844 
L 38 -844 
Q 366 -844 484 -692 
Q 603 -541 603 -63 
L 603 3500 
z
M 603 4863 
L 1178 4863 
L 1178 4134 
L 603 4134 
L 603 4863 
z
" transform="scale(0.015625)"/>
       </defs>
       <use xlink:href="#DejaVuSans-47"/>
       <use xlink:href="#DejaVuSans-75" x="77.490234"/>
       <use xlink:href="#DejaVuSans-6a" x="140.869141"/>
       <use xlink:href="#DejaVuSans-61" x="168.652344"/>
       <use xlink:href="#DejaVuSans-72" x="229.931641"/>
       <use xlink:href="#DejaVuSans-61" x="271.044922"/>
       <use xlink:href="#DejaVuSans-74" x="332.324219"/>
      </g>
     </g>
    </g>
    <g id="ytick_6">
     <g id="line2d_16">
      <g>
       <use xlink:href="#m274e78cd14" x="165.414062" y="380.987216" style="stroke: #000000; stroke-width: 0.8"/>
      </g>
     </g>
     <g id="text_12">
      <!-- Manipur -->
      <g transform="translate(117.745312 384.786435) scale(0.1 -0.1)">
       <defs>
        <path id="DejaVuSans-4d" d="M 628 4666 
L 1569 4666 
L 2759 1491 
L 3956 4666 
L 4897 4666 
L 4897 0 
L 4281 0 
L 4281 4097 
L 3078 897 
L 2444 897 
L 1241 4097 
L 1241 0 
L 628 0 
L 628 4666 
z
" transform="scale(0.015625)"/>
        <path id="DejaVuSans-70" d="M 1159 525 
L 1159 -1331 
L 581 -1331 
L 581 3500 
L 1159 3500 
L 1159 2969 
Q 1341 3281 1617 3432 
Q 1894 3584 2278 3584 
Q 2916 3584 3314 3078 
Q 3713 2572 3713 1747 
Q 3713 922 3314 415 
Q 2916 -91 2278 -91 
Q 1894 -91 1617 61 
Q 1341 213 1159 525 
z
M 3116 1747 
Q 3116 2381 2855 2742 
Q 2594 3103 2138 3103 
Q 1681 3103 1420 2742 
Q 1159 2381 1159 1747 
Q 1159 1113 1420 752 
Q 1681 391 2138 391 
Q 2594 391 2855 752 
Q 3116 1113 3116 1747 
z
" transform="scale(0.015625)"/>
       </defs>
       <use xlink:href="#DejaVuSans-4d"/>
       <use xlink:href="#DejaVuSans-61" x="86.279297"/>
       <use xlink:href="#DejaVuSans-6e" x="147.558594"/>
       <use xlink:href="#DejaVuSans-69" x="210.9375"/>
       <use xlink:href="#DejaVuSans-70" x="238.720703"/>
       <use xlink:href="#DejaVuSans-75" x="302.197266"/>
       <use xlink:href="#DejaVuSans-72" x="365.576172"/>
      </g>
     </g>
    </g>
    <g id="ytick_7">
     <g id="line2d_17">
      <g>
       <use xlink:href="#m274e78cd14" x="165.414062" y="367.896307" style="stroke: #000000; stroke-width: 0.8"/>
      </g>
     </g>
     <g id="text_13">
      <!-- Madhya Pradesh -->
      <g transform="translate(75.604687 371.695526) scale(0.1 -0.1)">
       <defs>
        <path id="DejaVuSans-79" d="M 2059 -325 
Q 1816 -950 1584 -1140 
Q 1353 -1331 966 -1331 
L 506 -1331 
L 506 -850 
L 844 -850 
Q 1081 -850 1212 -737 
Q 1344 -625 1503 -206 
L 1606 56 
L 191 3500 
L 800 3500 
L 1894 763 
L 2988 3500 
L 3597 3500 
L 2059 -325 
z
" transform="scale(0.015625)"/>
        <path id="DejaVuSans-50" d="M 1259 4147 
L 1259 2394 
L 2053 2394 
Q 2494 2394 2734 2622 
Q 2975 2850 2975 3272 
Q 2975 3691 2734 3919 
Q 2494 4147 2053 4147 
L 1259 4147 
z
M 628 4666 
L 2053 4666 
Q 2838 4666 3239 4311 
Q 3641 3956 3641 3272 
Q 3641 2581 3239 2228 
Q 2838 1875 2053 1875 
L 1259 1875 
L 1259 0 
L 628 0 
L 628 4666 
z
" transform="scale(0.015625)"/>
       </defs>
       <use xlink:href="#DejaVuSans-4d"/>
       <use xlink:href="#DejaVuSans-61" x="86.279297"/>
       <use xlink:href="#DejaVuSans-64" x="147.558594"/>
       <use xlink:href="#DejaVuSans-68" x="211.035156"/>
       <use xlink:href="#DejaVuSans-79" x="274.414062"/>
       <use xlink:href="#DejaVuSans-61" x="333.59375"/>
       <use xlink:href="#DejaVuSans-20" x="394.873047"/>
       <use xlink:href="#DejaVuSans-50" x="426.660156"/>
       <use xlink:href="#DejaVuSans-72" x="485.212891"/>
       <use xlink:href="#DejaVuSans-61" x="526.326172"/>
       <use xlink:href="#DejaVuSans-64" x="587.605469"/>
       <use xlink:href="#DejaVuSans-65" x="651.082031"/>
       <use xlink:href="#DejaVuSans-73" x="712.605469"/>
       <use xlink:href="#DejaVuSans-68" x="764.705078"/>
      </g>
     </g>
    </g>
    <g id="ytick_8">
     <g id="line2d_18">
      <g>
       <use xlink:href="#m274e78cd14" x="165.414062" y="354.805398" style="stroke: #000000; stroke-width: 0.8"/>
      </g>
     </g>
     <g id="text_14">
      <!-- Odisha -->
      <g transform="translate(123.740625 358.604616) scale(0.1 -0.1)">
       <defs>
        <path id="DejaVuSans-4f" d="M 2522 4238 
Q 1834 4238 1429 3725 
Q 1025 3213 1025 2328 
Q 1025 1447 1429 934 
Q 1834 422 2522 422 
Q 3209 422 3611 934 
Q 4013 1447 4013 2328 
Q 4013 3213 3611 3725 
Q 3209 4238 2522 4238 
z
M 2522 4750 
Q 3503 4750 4090 4092 
Q 4678 3434 4678 2328 
Q 4678 1225 4090 567 
Q 3503 -91 2522 -91 
Q 1538 -91 948 565 
Q 359 1222 359 2328 
Q 359 3434 948 4092 
Q 1538 4750 2522 4750 
z
" transform="scale(0.015625)"/>
       </defs>
       <use xlink:href="#DejaVuSans-4f"/>
       <use xlink:href="#DejaVuSans-64" x="78.710938"/>
       <use xlink:href="#DejaVuSans-69" x="142.1875"/>
       <use xlink:href="#DejaVuSans-73" x="169.970703"/>
       <use xlink:href="#DejaVuSans-68" x="222.070312"/>
       <use xlink:href="#DejaVuSans-61" x="285.449219"/>
      </g>
     </g>
    </g>
    <g id="ytick_9">
     <g id="line2d_19">
      <g>
       <use xlink:href="#m274e78cd14" x="165.414062" y="341.714489" style="stroke: #000000; stroke-width: 0.8"/>
      </g>
     </g>
     <g id="text_15">
      <!-- Andhra Pradesh -->
      <g transform="translate(78.990625 345.513707) scale(0.1 -0.1)">
       <defs>
        <path id="DejaVuSans-41" d="M 2188 4044 
L 1331 1722 
L 3047 1722 
L 2188 4044 
z
M 1831 4666 
L 2547 4666 
L 4325 0 
L 3669 0 
L 3244 1197 
L 1141 1197 
L 716 0 
L 50 0 
L 1831 4666 
z
" transform="scale(0.015625)"/>
       </defs>
       <use xlink:href="#DejaVuSans-41"/>
       <use xlink:href="#DejaVuSans-6e" x="68.408203"/>
       <use xlink:href="#DejaVuSans-64" x="131.787109"/>
       <use xlink:href="#DejaVuSans-68" x="195.263672"/>
       <use xlink:href="#DejaVuSans-72" x="258.642578"/>
       <use xlink:href="#DejaVuSans-61" x="299.755859"/>
       <use xlink:href="#DejaVuSans-20" x="361.035156"/>
       <use xlink:href="#DejaVuSans-50" x="392.822266"/>
       <use xlink:href="#DejaVuSans-72" x="451.375"/>
       <use xlink:href="#DejaVuSans-61" x="492.488281"/>
       <use xlink:href="#DejaVuSans-64" x="553.767578"/>
       <use xlink:href="#DejaVuSans-65" x="617.244141"/>
       <use xlink:href="#DejaVuSans-73" x="678.767578"/>
       <use xlink:href="#DejaVuSans-68" x="730.867188"/>
      </g>
     </g>
    </g>
    <g id="ytick_10">
     <g id="line2d_20">
      <g>
       <use xlink:href="#m274e78cd14" x="165.414062" y="328.62358" style="stroke: #000000; stroke-width: 0.8"/>
      </g>
     </g>
     <g id="text_16">
      <!-- Tripura -->
      <g transform="translate(123.967187 332.422798) scale(0.1 -0.1)">
       <use xlink:href="#DejaVuSans-54"/>
       <use xlink:href="#DejaVuSans-72" x="46.333984"/>
       <use xlink:href="#DejaVuSans-69" x="87.447266"/>
       <use xlink:href="#DejaVuSans-70" x="115.230469"/>
       <use xlink:href="#DejaVuSans-75" x="178.707031"/>
       <use xlink:href="#DejaVuSans-72" x="242.085938"/>
       <use xlink:href="#DejaVuSans-61" x="283.199219"/>
      </g>
     </g>
    </g>
    <g id="ytick_11">
     <g id="line2d_21">
      <g>
       <use xlink:href="#m274e78cd14" x="165.414062" y="315.53267" style="stroke: #000000; stroke-width: 0.8"/>
      </g>
     </g>
     <g id="text_17">
      <!-- Bihar -->
      <g transform="translate(132.198438 319.331889) scale(0.1 -0.1)">
       <use xlink:href="#DejaVuSans-42"/>
       <use xlink:href="#DejaVuSans-69" x="68.603516"/>
       <use xlink:href="#DejaVuSans-68" x="96.386719"/>
       <use xlink:href="#DejaVuSans-61" x="159.765625"/>
       <use xlink:href="#DejaVuSans-72" x="221.044922"/>
      </g>
     </g>
    </g>
    <g id="ytick_12">
     <g id="line2d_22">
      <g>
       <use xlink:href="#m274e78cd14" x="165.414062" y="302.441761" style="stroke: #000000; stroke-width: 0.8"/>
      </g>
     </g>
     <g id="text_18">
      <!-- Meghalaya -->
      <g transform="translate(103.865625 306.24098) scale(0.1 -0.1)">
       <use xlink:href="#DejaVuSans-4d"/>
       <use xlink:href="#DejaVuSans-65" x="86.279297"/>
       <use xlink:href="#DejaVuSans-67" x="147.802734"/>
       <use xlink:href="#DejaVuSans-68" x="211.279297"/>
       <use xlink:href="#DejaVuSans-61" x="274.658203"/>
       <use xlink:href="#DejaVuSans-6c" x="335.9375"/>
       <use xlink:href="#DejaVuSans-61" x="363.720703"/>
       <use xlink:href="#DejaVuSans-79" x="425"/>
       <use xlink:href="#DejaVuSans-61" x="484.179688"/>
      </g>
     </g>
    </g>
    <g id="ytick_13">
     <g id="line2d_23">
      <g>
       <use xlink:href="#m274e78cd14" x="165.414062" y="289.350852" style="stroke: #000000; stroke-width: 0.8"/>
      </g>
     </g>
     <g id="text_19">
      <!-- Arunachal Pradesh -->
      <g transform="translate(64.596875 293.150071) scale(0.1 -0.1)">
       <use xlink:href="#DejaVuSans-41"/>
       <use xlink:href="#DejaVuSans-72" x="68.408203"/>
       <use xlink:href="#DejaVuSans-75" x="109.521484"/>
       <use xlink:href="#DejaVuSans-6e" x="172.900391"/>
       <use xlink:href="#DejaVuSans-61" x="236.279297"/>
       <use xlink:href="#DejaVuSans-63" x="297.558594"/>
       <use xlink:href="#DejaVuSans-68" x="352.539062"/>
       <use xlink:href="#DejaVuSans-61" x="415.917969"/>
       <use xlink:href="#DejaVuSans-6c" x="477.197266"/>
       <use xlink:href="#DejaVuSans-20" x="504.980469"/>
       <use xlink:href="#DejaVuSans-50" x="536.767578"/>
       <use xlink:href="#DejaVuSans-72" x="595.320312"/>
       <use xlink:href="#DejaVuSans-61" x="636.433594"/>
       <use xlink:href="#DejaVuSans-64" x="697.712891"/>
       <use xlink:href="#DejaVuSans-65" x="761.189453"/>
       <use xlink:href="#DejaVuSans-73" x="822.712891"/>
       <use xlink:href="#DejaVuSans-68" x="874.8125"/>
      </g>
     </g>
    </g>
    <g id="ytick_14">
     <g id="line2d_24">
      <g>
       <use xlink:href="#m274e78cd14" x="165.414062" y="276.259943" style="stroke: #000000; stroke-width: 0.8"/>
      </g>
     </g>
     <g id="text_20">
      <!-- Haryana -->
      <g transform="translate(116.142188 280.059162) scale(0.1 -0.1)">
       <use xlink:href="#DejaVuSans-48"/>
       <use xlink:href="#DejaVuSans-61" x="75.195312"/>
       <use xlink:href="#DejaVuSans-72" x="136.474609"/>
       <use xlink:href="#DejaVuSans-79" x="177.587891"/>
       <use xlink:href="#DejaVuSans-61" x="236.767578"/>
       <use xlink:href="#DejaVuSans-6e" x="298.046875"/>
       <use xlink:href="#DejaVuSans-61" x="361.425781"/>
      </g>
     </g>
    </g>
    <g id="ytick_15">
     <g id="line2d_25">
      <g>
       <use xlink:href="#m274e78cd14" x="165.414062" y="263.169034" style="stroke: #000000; stroke-width: 0.8"/>
      </g>
     </g>
     <g id="text_21">
      <!-- Nagaland -->
      <g transform="translate(110.735938 266.968253) scale(0.1 -0.1)">
       <defs>
        <path id="DejaVuSans-4e" d="M 628 4666 
L 1478 4666 
L 3547 763 
L 3547 4666 
L 4159 4666 
L 4159 0 
L 3309 0 
L 1241 3903 
L 1241 0 
L 628 0 
L 628 4666 
z
" transform="scale(0.015625)"/>
       </defs>
       <use xlink:href="#DejaVuSans-4e"/>
       <use xlink:href="#DejaVuSans-61" x="74.804688"/>
       <use xlink:href="#DejaVuSans-67" x="136.083984"/>
       <use xlink:href="#DejaVuSans-61" x="199.560547"/>
       <use xlink:href="#DejaVuSans-6c" x="260.839844"/>
       <use xlink:href="#DejaVuSans-61" x="288.623047"/>
       <use xlink:href="#DejaVuSans-6e" x="349.902344"/>
       <use xlink:href="#DejaVuSans-64" x="413.28125"/>
      </g>
     </g>
    </g>
    <g id="ytick_16">
     <g id="line2d_26">
      <g>
       <use xlink:href="#m274e78cd14" x="165.414062" y="250.078125" style="stroke: #000000; stroke-width: 0.8"/>
      </g>
     </g>
     <g id="text_22">
      <!-- Uttar Pradesh -->
      <g transform="translate(89.695312 253.877344) scale(0.1 -0.1)">
       <use xlink:href="#DejaVuSans-55"/>
       <use xlink:href="#DejaVuSans-74" x="73.193359"/>
       <use xlink:href="#DejaVuSans-74" x="112.402344"/>
       <use xlink:href="#DejaVuSans-61" x="151.611328"/>
       <use xlink:href="#DejaVuSans-72" x="212.890625"/>
       <use xlink:href="#DejaVuSans-20" x="254.003906"/>
       <use xlink:href="#DejaVuSans-50" x="285.791016"/>
       <use xlink:href="#DejaVuSans-72" x="344.34375"/>
       <use xlink:href="#DejaVuSans-61" x="385.457031"/>
       <use xlink:href="#DejaVuSans-64" x="446.736328"/>
       <use xlink:href="#DejaVuSans-65" x="510.212891"/>
       <use xlink:href="#DejaVuSans-73" x="571.736328"/>
       <use xlink:href="#DejaVuSans-68" x="623.835938"/>
      </g>
     </g>
    </g>
    <g id="ytick_17">
     <g id="line2d_27">
      <g>
       <use xlink:href="#m274e78cd14" x="165.414062" y="236.987216" style="stroke: #000000; stroke-width: 0.8"/>
      </g>
     </g>
     <g id="text_23">
      <!-- Assam -->
      <g transform="translate(125.285937 240.786435) scale(0.1 -0.1)">
       <defs>
        <path id="DejaVuSans-6d" d="M 3328 2828 
Q 3544 3216 3844 3400 
Q 4144 3584 4550 3584 
Q 5097 3584 5394 3201 
Q 5691 2819 5691 2113 
L 5691 0 
L 5113 0 
L 5113 2094 
Q 5113 2597 4934 2840 
Q 4756 3084 4391 3084 
Q 3944 3084 3684 2787 
Q 3425 2491 3425 1978 
L 3425 0 
L 2847 0 
L 2847 2094 
Q 2847 2600 2669 2842 
Q 2491 3084 2119 3084 
Q 1678 3084 1418 2786 
Q 1159 2488 1159 1978 
L 1159 0 
L 581 0 
L 581 3500 
L 1159 3500 
L 1159 2956 
Q 1356 3278 1631 3431 
Q 1906 3584 2284 3584 
Q 2666 3584 2933 3390 
Q 3200 3197 3328 2828 
z
" transform="scale(0.015625)"/>
       </defs>
       <use xlink:href="#DejaVuSans-41"/>
       <use xlink:href="#DejaVuSans-73" x="68.408203"/>
       <use xlink:href="#DejaVuSans-73" x="120.507812"/>
       <use xlink:href="#DejaVuSans-61" x="172.607422"/>
       <use xlink:href="#DejaVuSans-6d" x="233.886719"/>
      </g>
     </g>
    </g>
    <g id="ytick_18">
     <g id="line2d_28">
      <g>
       <use xlink:href="#m274e78cd14" x="165.414062" y="223.896307" style="stroke: #000000; stroke-width: 0.8"/>
      </g>
     </g>
     <g id="text_24">
      <!-- Other Union Territories -->
      <g transform="translate(45.096875 227.695526) scale(0.1 -0.1)">
       <use xlink:href="#DejaVuSans-4f"/>
       <use xlink:href="#DejaVuSans-74" x="78.710938"/>
       <use xlink:href="#DejaVuSans-68" x="117.919922"/>
       <use xlink:href="#DejaVuSans-65" x="181.298828"/>
       <use xlink:href="#DejaVuSans-72" x="242.822266"/>
       <use xlink:href="#DejaVuSans-20" x="283.935547"/>
       <use xlink:href="#DejaVuSans-55" x="315.722656"/>
       <use xlink:href="#DejaVuSans-6e" x="388.916016"/>
       <use xlink:href="#DejaVuSans-69" x="452.294922"/>
       <use xlink:href="#DejaVuSans-6f" x="480.078125"/>
       <use xlink:href="#DejaVuSans-6e" x="541.259766"/>
       <use xlink:href="#DejaVuSans-20" x="604.638672"/>
       <use xlink:href="#DejaVuSans-54" x="636.425781"/>
       <use xlink:href="#DejaVuSans-65" x="680.509766"/>
       <use xlink:href="#DejaVuSans-72" x="742.033203"/>
       <use xlink:href="#DejaVuSans-72" x="781.396484"/>
       <use xlink:href="#DejaVuSans-69" x="822.509766"/>
       <use xlink:href="#DejaVuSans-74" x="850.292969"/>
       <use xlink:href="#DejaVuSans-6f" x="889.501953"/>
       <use xlink:href="#DejaVuSans-72" x="950.683594"/>
       <use xlink:href="#DejaVuSans-69" x="991.796875"/>
       <use xlink:href="#DejaVuSans-65" x="1019.580078"/>
       <use xlink:href="#DejaVuSans-73" x="1081.103516"/>
      </g>
     </g>
    </g>
    <g id="ytick_19">
     <g id="line2d_29">
      <g>
       <use xlink:href="#m274e78cd14" x="165.414062" y="210.805398" style="stroke: #000000; stroke-width: 0.8"/>
      </g>
     </g>
     <g id="text_25">
      <!-- Punjab -->
      <g transform="translate(124.629687 214.604616) scale(0.1 -0.1)">
       <defs>
        <path id="DejaVuSans-62" d="M 3116 1747 
Q 3116 2381 2855 2742 
Q 2594 3103 2138 3103 
Q 1681 3103 1420 2742 
Q 1159 2381 1159 1747 
Q 1159 1113 1420 752 
Q 1681 391 2138 391 
Q 2594 391 2855 752 
Q 3116 1113 3116 1747 
z
M 1159 2969 
Q 1341 3281 1617 3432 
Q 1894 3584 2278 3584 
Q 2916 3584 3314 3078 
Q 3713 2572 3713 1747 
Q 3713 922 3314 415 
Q 2916 -91 2278 -91 
Q 1894 -91 1617 61 
Q 1341 213 1159 525 
L 1159 0 
L 581 0 
L 581 4863 
L 1159 4863 
L 1159 2969 
z
" transform="scale(0.015625)"/>
       </defs>
       <use xlink:href="#DejaVuSans-50"/>
       <use xlink:href="#DejaVuSans-75" x="58.552734"/>
       <use xlink:href="#DejaVuSans-6e" x="121.931641"/>
       <use xlink:href="#DejaVuSans-6a" x="185.310547"/>
       <use xlink:href="#DejaVuSans-61" x="213.09375"/>
       <use xlink:href="#DejaVuSans-62" x="274.373047"/>
      </g>
     </g>
    </g>
    <g id="ytick_20">
     <g id="line2d_30">
      <g>
       <use xlink:href="#m274e78cd14" x="165.414062" y="197.714489" style="stroke: #000000; stroke-width: 0.8"/>
      </g>
     </g>
     <g id="text_26">
      <!-- Delhi -->
      <g transform="translate(132.667188 201.513707) scale(0.1 -0.1)">
       <use xlink:href="#DejaVuSans-44"/>
       <use xlink:href="#DejaVuSans-65" x="77.001953"/>
       <use xlink:href="#DejaVuSans-6c" x="138.525391"/>
       <use xlink:href="#DejaVuSans-68" x="166.308594"/>
       <use xlink:href="#DejaVuSans-69" x="229.6875"/>
      </g>
     </g>
    </g>
    <g id="ytick_21">
     <g id="line2d_31">
      <g>
       <use xlink:href="#m274e78cd14" x="165.414062" y="184.62358" style="stroke: #000000; stroke-width: 0.8"/>
      </g>
     </g>
     <g id="text_27">
      <!-- Mizoram -->
      <g transform="translate(115.660937 188.422798) scale(0.1 -0.1)">
       <use xlink:href="#DejaVuSans-4d"/>
       <use xlink:href="#DejaVuSans-69" x="86.279297"/>
       <use xlink:href="#DejaVuSans-7a" x="114.0625"/>
       <use xlink:href="#DejaVuSans-6f" x="166.552734"/>
       <use xlink:href="#DejaVuSans-72" x="227.734375"/>
       <use xlink:href="#DejaVuSans-61" x="268.847656"/>
       <use xlink:href="#DejaVuSans-6d" x="330.126953"/>
      </g>
     </g>
    </g>
    <g id="ytick_22">
     <g id="line2d_32">
      <g>
       <use xlink:href="#m274e78cd14" x="165.414062" y="171.53267" style="stroke: #000000; stroke-width: 0.8"/>
      </g>
     </g>
     <g id="text_28">
      <!-- Rajasthan -->
      <g transform="translate(108.723437 175.331889) scale(0.1 -0.1)">
       <defs>
        <path id="DejaVuSans-52" d="M 2841 2188 
Q 3044 2119 3236 1894 
Q 3428 1669 3622 1275 
L 4263 0 
L 3584 0 
L 2988 1197 
Q 2756 1666 2539 1819 
Q 2322 1972 1947 1972 
L 1259 1972 
L 1259 0 
L 628 0 
L 628 4666 
L 2053 4666 
Q 2853 4666 3247 4331 
Q 3641 3997 3641 3322 
Q 3641 2881 3436 2590 
Q 3231 2300 2841 2188 
z
M 1259 4147 
L 1259 2491 
L 2053 2491 
Q 2509 2491 2742 2702 
Q 2975 2913 2975 3322 
Q 2975 3731 2742 3939 
Q 2509 4147 2053 4147 
L 1259 4147 
z
" transform="scale(0.015625)"/>
       </defs>
       <use xlink:href="#DejaVuSans-52"/>
       <use xlink:href="#DejaVuSans-61" x="67.232422"/>
       <use xlink:href="#DejaVuSans-6a" x="128.511719"/>
       <use xlink:href="#DejaVuSans-61" x="156.294922"/>
       <use xlink:href="#DejaVuSans-73" x="217.574219"/>
       <use xlink:href="#DejaVuSans-74" x="269.673828"/>
       <use xlink:href="#DejaVuSans-68" x="308.882812"/>
       <use xlink:href="#DejaVuSans-61" x="372.261719"/>
       <use xlink:href="#DejaVuSans-6e" x="433.541016"/>
      </g>
     </g>
    </g>
    <g id="ytick_23">
     <g id="line2d_33">
      <g>
       <use xlink:href="#m274e78cd14" x="165.414062" y="158.441761" style="stroke: #000000; stroke-width: 0.8"/>
      </g>
     </g>
     <g id="text_29">
      <!-- Karnataka -->
      <g transform="translate(107.709375 162.24098) scale(0.1 -0.1)">
       <defs>
        <path id="DejaVuSans-4b" d="M 628 4666 
L 1259 4666 
L 1259 2694 
L 3353 4666 
L 4166 4666 
L 1850 2491 
L 4331 0 
L 3500 0 
L 1259 2247 
L 1259 0 
L 628 0 
L 628 4666 
z
" transform="scale(0.015625)"/>
       </defs>
       <use xlink:href="#DejaVuSans-4b"/>
       <use xlink:href="#DejaVuSans-61" x="63.826172"/>
       <use xlink:href="#DejaVuSans-72" x="125.105469"/>
       <use xlink:href="#DejaVuSans-6e" x="164.46875"/>
       <use xlink:href="#DejaVuSans-61" x="227.847656"/>
       <use xlink:href="#DejaVuSans-74" x="289.126953"/>
       <use xlink:href="#DejaVuSans-61" x="328.335938"/>
       <use xlink:href="#DejaVuSans-6b" x="389.615234"/>
       <use xlink:href="#DejaVuSans-61" x="445.775391"/>
      </g>
     </g>
    </g>
    <g id="ytick_24">
     <g id="line2d_34">
      <g>
       <use xlink:href="#m274e78cd14" x="165.414062" y="145.350852" style="stroke: #000000; stroke-width: 0.8"/>
      </g>
     </g>
     <g id="text_30">
      <!-- Goa -->
      <g transform="translate(138.41875 149.150071) scale(0.1 -0.1)">
       <use xlink:href="#DejaVuSans-47"/>
       <use xlink:href="#DejaVuSans-6f" x="77.490234"/>
       <use xlink:href="#DejaVuSans-61" x="138.671875"/>
      </g>
     </g>
    </g>
    <g id="ytick_25">
     <g id="line2d_35">
      <g>
       <use xlink:href="#m274e78cd14" x="165.414062" y="132.259943" style="stroke: #000000; stroke-width: 0.8"/>
      </g>
     </g>
     <g id="text_31">
      <!-- West Bengal -->
      <g transform="translate(96.046875 136.059162) scale(0.1 -0.1)">
       <defs>
        <path id="DejaVuSans-57" d="M 213 4666 
L 850 4666 
L 1831 722 
L 2809 4666 
L 3519 4666 
L 4500 722 
L 5478 4666 
L 6119 4666 
L 4947 0 
L 4153 0 
L 3169 4050 
L 2175 0 
L 1381 0 
L 213 4666 
z
" transform="scale(0.015625)"/>
       </defs>
       <use xlink:href="#DejaVuSans-57"/>
       <use xlink:href="#DejaVuSans-65" x="93.001953"/>
       <use xlink:href="#DejaVuSans-73" x="154.525391"/>
       <use xlink:href="#DejaVuSans-74" x="206.625"/>
       <use xlink:href="#DejaVuSans-20" x="245.833984"/>
       <use xlink:href="#DejaVuSans-42" x="277.621094"/>
       <use xlink:href="#DejaVuSans-65" x="346.224609"/>
       <use xlink:href="#DejaVuSans-6e" x="407.748047"/>
       <use xlink:href="#DejaVuSans-67" x="471.126953"/>
       <use xlink:href="#DejaVuSans-61" x="534.603516"/>
       <use xlink:href="#DejaVuSans-6c" x="595.882812"/>
      </g>
     </g>
    </g>
    <g id="ytick_26">
     <g id="line2d_36">
      <g>
       <use xlink:href="#m274e78cd14" x="165.414062" y="119.169034" style="stroke: #000000; stroke-width: 0.8"/>
      </g>
     </g>
     <g id="text_32">
      <!-- Sikkim -->
      <g transform="translate(125.1875 122.968253) scale(0.1 -0.1)">
       <defs>
        <path id="DejaVuSans-53" d="M 3425 4513 
L 3425 3897 
Q 3066 4069 2747 4153 
Q 2428 4238 2131 4238 
Q 1616 4238 1336 4038 
Q 1056 3838 1056 3469 
Q 1056 3159 1242 3001 
Q 1428 2844 1947 2747 
L 2328 2669 
Q 3034 2534 3370 2195 
Q 3706 1856 3706 1288 
Q 3706 609 3251 259 
Q 2797 -91 1919 -91 
Q 1588 -91 1214 -16 
Q 841 59 441 206 
L 441 856 
Q 825 641 1194 531 
Q 1563 422 1919 422 
Q 2459 422 2753 634 
Q 3047 847 3047 1241 
Q 3047 1584 2836 1778 
Q 2625 1972 2144 2069 
L 1759 2144 
Q 1053 2284 737 2584 
Q 422 2884 422 3419 
Q 422 4038 858 4394 
Q 1294 4750 2059 4750 
Q 2388 4750 2728 4690 
Q 3069 4631 3425 4513 
z
" transform="scale(0.015625)"/>
       </defs>
       <use xlink:href="#DejaVuSans-53"/>
       <use xlink:href="#DejaVuSans-69" x="63.476562"/>
       <use xlink:href="#DejaVuSans-6b" x="91.259766"/>
       <use xlink:href="#DejaVuSans-6b" x="149.169922"/>
       <use xlink:href="#DejaVuSans-69" x="207.080078"/>
       <use xlink:href="#DejaVuSans-6d" x="234.863281"/>
      </g>
     </g>
    </g>
    <g id="ytick_27">
     <g id="line2d_37">
      <g>
       <use xlink:href="#m274e78cd14" x="165.414062" y="106.078125" style="stroke: #000000; stroke-width: 0.8"/>
      </g>
     </g>
     <g id="text_33">
      <!-- Jammu &amp; Kashmir and Ladakh -->
      <g transform="translate(7.2 109.877344) scale(0.1 -0.1)">
       <defs>
        <path id="DejaVuSans-26" d="M 1556 2509 
Q 1272 2256 1139 2004 
Q 1006 1753 1006 1478 
Q 1006 1022 1337 719 
Q 1669 416 2169 416 
Q 2466 416 2725 514 
Q 2984 613 3213 813 
L 1556 2509 
z
M 1997 2859 
L 3584 1234 
Q 3769 1513 3872 1830 
Q 3975 2147 3994 2503 
L 4575 2503 
Q 4538 2091 4375 1687 
Q 4213 1284 3922 891 
L 4794 0 
L 4006 0 
L 3559 459 
Q 3234 181 2878 45 
Q 2522 -91 2113 -91 
Q 1359 -91 881 339 
Q 403 769 403 1441 
Q 403 1841 612 2192 
Q 822 2544 1241 2853 
Q 1091 3050 1012 3245 
Q 934 3441 934 3628 
Q 934 4134 1281 4442 
Q 1628 4750 2203 4750 
Q 2463 4750 2720 4694 
Q 2978 4638 3244 4525 
L 3244 3956 
Q 2972 4103 2725 4179 
Q 2478 4256 2266 4256 
Q 1938 4256 1733 4082 
Q 1528 3909 1528 3634 
Q 1528 3475 1620 3314 
Q 1713 3153 1997 2859 
z
" transform="scale(0.015625)"/>
        <path id="DejaVuSans-4c" d="M 628 4666 
L 1259 4666 
L 1259 531 
L 3531 531 
L 3531 0 
L 628 0 
L 628 4666 
z
" transform="scale(0.015625)"/>
       </defs>
       <use xlink:href="#DejaVuSans-4a"/>
       <use xlink:href="#DejaVuSans-61" x="29.492188"/>
       <use xlink:href="#DejaVuSans-6d" x="90.771484"/>
       <use xlink:href="#DejaVuSans-6d" x="188.183594"/>
       <use xlink:href="#DejaVuSans-75" x="285.595703"/>
       <use xlink:href="#DejaVuSans-20" x="348.974609"/>
       <use xlink:href="#DejaVuSans-26" x="380.761719"/>
       <use xlink:href="#DejaVuSans-20" x="458.740234"/>
       <use xlink:href="#DejaVuSans-4b" x="490.527344"/>
       <use xlink:href="#DejaVuSans-61" x="554.353516"/>
       <use xlink:href="#DejaVuSans-73" x="615.632812"/>
       <use xlink:href="#DejaVuSans-68" x="667.732422"/>
       <use xlink:href="#DejaVuSans-6d" x="731.111328"/>
       <use xlink:href="#DejaVuSans-69" x="828.523438"/>
       <use xlink:href="#DejaVuSans-72" x="856.306641"/>
       <use xlink:href="#DejaVuSans-20" x="897.419922"/>
       <use xlink:href="#DejaVuSans-61" x="929.207031"/>
       <use xlink:href="#DejaVuSans-6e" x="990.486328"/>
       <use xlink:href="#DejaVuSans-64" x="1053.865234"/>
       <use xlink:href="#DejaVuSans-20" x="1117.341797"/>
       <use xlink:href="#DejaVuSans-4c" x="1149.128906"/>
       <use xlink:href="#DejaVuSans-61" x="1204.841797"/>
       <use xlink:href="#DejaVuSans-64" x="1266.121094"/>
       <use xlink:href="#DejaVuSans-61" x="1329.597656"/>
       <use xlink:href="#DejaVuSans-6b" x="1390.876953"/>
       <use xlink:href="#DejaVuSans-68" x="1448.787109"/>
      </g>
     </g>
    </g>
    <g id="ytick_28">
     <g id="line2d_38">
      <g>
       <use xlink:href="#m274e78cd14" x="165.414062" y="92.987216" style="stroke: #000000; stroke-width: 0.8"/>
      </g>
     </g>
     <g id="text_34">
      <!-- Kerala -->
      <g transform="translate(127.057812 96.786435) scale(0.1 -0.1)">
       <use xlink:href="#DejaVuSans-4b"/>
       <use xlink:href="#DejaVuSans-65" x="60.576172"/>
       <use xlink:href="#DejaVuSans-72" x="122.099609"/>
       <use xlink:href="#DejaVuSans-61" x="163.212891"/>
       <use xlink:href="#DejaVuSans-6c" x="224.492188"/>
       <use xlink:href="#DejaVuSans-61" x="252.275391"/>
      </g>
     </g>
    </g>
    <g id="ytick_29">
     <g id="line2d_39">
      <g>
       <use xlink:href="#m274e78cd14" x="165.414062" y="79.896307" style="stroke: #000000; stroke-width: 0.8"/>
      </g>
     </g>
     <g id="text_35">
      <!-- Maharashtra -->
      <g transform="translate(95.246875 83.695526) scale(0.1 -0.1)">
       <use xlink:href="#DejaVuSans-4d"/>
       <use xlink:href="#DejaVuSans-61" x="86.279297"/>
       <use xlink:href="#DejaVuSans-68" x="147.558594"/>
       <use xlink:href="#DejaVuSans-61" x="210.9375"/>
       <use xlink:href="#DejaVuSans-72" x="272.216797"/>
       <use xlink:href="#DejaVuSans-61" x="313.330078"/>
       <use xlink:href="#DejaVuSans-73" x="374.609375"/>
       <use xlink:href="#DejaVuSans-68" x="426.708984"/>
       <use xlink:href="#DejaVuSans-74" x="490.087891"/>
       <use xlink:href="#DejaVuSans-72" x="529.296875"/>
       <use xlink:href="#DejaVuSans-61" x="570.410156"/>
      </g>
     </g>
    </g>
    <g id="ytick_30">
     <g id="line2d_40">
      <g>
       <use xlink:href="#m274e78cd14" x="165.414062" y="66.805398" style="stroke: #000000; stroke-width: 0.8"/>
      </g>
     </g>
     <g id="text_36">
      <!-- Himachal Pradesh -->
      <g transform="translate(68.184375 70.604616) scale(0.1 -0.1)">
       <use xlink:href="#DejaVuSans-48"/>
       <use xlink:href="#DejaVuSans-69" x="75.195312"/>
       <use xlink:href="#DejaVuSans-6d" x="102.978516"/>
       <use xlink:href="#DejaVuSans-61" x="200.390625"/>
       <use xlink:href="#DejaVuSans-63" x="261.669922"/>
       <use xlink:href="#DejaVuSans-68" x="316.650391"/>
       <use xlink:href="#DejaVuSans-61" x="380.029297"/>
       <use xlink:href="#DejaVuSans-6c" x="441.308594"/>
       <use xlink:href="#DejaVuSans-20" x="469.091797"/>
       <use xlink:href="#DejaVuSans-50" x="500.878906"/>
       <use xlink:href="#DejaVuSans-72" x="559.431641"/>
       <use xlink:href="#DejaVuSans-61" x="600.544922"/>
       <use xlink:href="#DejaVuSans-64" x="661.824219"/>
       <use xlink:href="#DejaVuSans-65" x="725.300781"/>
       <use xlink:href="#DejaVuSans-73" x="786.824219"/>
       <use xlink:href="#DejaVuSans-68" x="838.923828"/>
      </g>
     </g>
    </g>
    <g id="ytick_31">
     <g id="line2d_41">
      <g>
       <use xlink:href="#m274e78cd14" x="165.414062" y="53.714489" style="stroke: #000000; stroke-width: 0.8"/>
      </g>
     </g>
     <g id="text_37">
      <!-- Tamil Nadu -->
      <g transform="translate(103.057812 57.513707) scale(0.1 -0.1)">
       <use xlink:href="#DejaVuSans-54"/>
       <use xlink:href="#DejaVuSans-61" x="44.583984"/>
       <use xlink:href="#DejaVuSans-6d" x="105.863281"/>
       <use xlink:href="#DejaVuSans-69" x="203.275391"/>
       <use xlink:href="#DejaVuSans-6c" x="231.058594"/>
       <use xlink:href="#DejaVuSans-20" x="258.841797"/>
       <use xlink:href="#DejaVuSans-4e" x="290.628906"/>
       <use xlink:href="#DejaVuSans-61" x="365.433594"/>
       <use xlink:href="#DejaVuSans-64" x="426.712891"/>
       <use xlink:href="#DejaVuSans-75" x="490.189453"/>
      </g>
     </g>
    </g>
   </g>
   <g id="line2d_42">
    <path d="M 440.885548 471.838125 
L 440.885548 28.318125 
" clip-path="url(#p97a7c059dc)" style="fill: none; stroke: #000000; stroke-width: 0.9; stroke-linecap: square"/>
   </g>
   <g id="patch_34">
    <path d="M 165.414062 471.838125 
L 165.414062 28.318125 
" style="fill: none; stroke: #000000; stroke-width: 0.8; stroke-linejoin: miter; stroke-linecap: square"/>
   </g>
   <g id="patch_35">
    <path d="M 639.714063 471.838125 
L 639.714063 28.318125 
" style="fill: none; stroke: #000000; stroke-width: 0.8; stroke-linejoin: miter; stroke-linecap: square"/>
   </g>
   <g id="patch_36">
    <path d="M 165.414062 471.838125 
L 639.714062 471.838125 
" style="fill: none; stroke: #000000; stroke-width: 0.8; stroke-linejoin: miter; stroke-linecap: square"/>
   </g>
   <g id="patch_37">
    <path d="M 165.414062 28.318125 
L 639.714062 28.318125 
" style="fill: none; stroke: #000000; stroke-width: 0.8; stroke-linejoin: miter; stroke-linecap: square"/>
   </g>
   <g id="text_38">
    <!-- Positive: disability-prominent; negative: mortality-prominent -->
    <g transform="translate(170.157062 23.882925) scale(0.1 -0.1)">
     <defs>
      <path id="DejaVuSans-76" d="M 191 3500 
L 800 3500 
L 1894 563 
L 2988 3500 
L 3597 3500 
L 2284 0 
L 1503 0 
L 191 3500 
z
" transform="scale(0.015625)"/>
      <path id="DejaVuSans-3a" d="M 750 794 
L 1409 794 
L 1409 0 
L 750 0 
L 750 794 
z
M 750 3309 
L 1409 3309 
L 1409 2516 
L 750 2516 
L 750 3309 
z
" transform="scale(0.015625)"/>
      <path id="DejaVuSans-3b" d="M 750 3309 
L 1409 3309 
L 1409 2516 
L 750 2516 
L 750 3309 
z
M 750 794 
L 1409 794 
L 1409 256 
L 897 -744 
L 494 -744 
L 750 256 
L 750 794 
z
" transform="scale(0.015625)"/>
     </defs>
     <use xlink:href="#DejaVuSans-50"/>
     <use xlink:href="#DejaVuSans-6f" x="56.677734"/>
     <use xlink:href="#DejaVuSans-73" x="117.859375"/>
     <use xlink:href="#DejaVuSans-69" x="169.958984"/>
     <use xlink:href="#DejaVuSans-74" x="197.742188"/>
     <use xlink:href="#DejaVuSans-69" x="236.951172"/>
     <use xlink:href="#DejaVuSans-76" x="264.734375"/>
     <use xlink:href="#DejaVuSans-65" x="323.914062"/>
     <use xlink:href="#DejaVuSans-3a" x="385.4375"/>
     <use xlink:href="#DejaVuSans-20" x="419.128906"/>
     <use xlink:href="#DejaVuSans-64" x="450.916016"/>
     <use xlink:href="#DejaVuSans-69" x="514.392578"/>
     <use xlink:href="#DejaVuSans-73" x="542.175781"/>
     <use xlink:href="#DejaVuSans-61" x="594.275391"/>
     <use xlink:href="#DejaVuSans-62" x="655.554688"/>
     <use xlink:href="#DejaVuSans-69" x="719.03125"/>
     <use xlink:href="#DejaVuSans-6c" x="746.814453"/>
     <use xlink:href="#DejaVuSans-69" x="774.597656"/>
     <use xlink:href="#DejaVuSans-74" x="802.380859"/>
     <use xlink:href="#DejaVuSans-79" x="841.589844"/>
     <use xlink:href="#DejaVuSans-2d" x="899.019531"/>
     <use xlink:href="#DejaVuSans-70" x="935.103516"/>
     <use xlink:href="#DejaVuSans-72" x="998.580078"/>
     <use xlink:href="#DejaVuSans-6f" x="1037.443359"/>
     <use xlink:href="#DejaVuSans-6d" x="1098.625"/>
     <use xlink:href="#DejaVuSans-69" x="1196.037109"/>
     <use xlink:href="#DejaVuSans-6e" x="1223.820312"/>
     <use xlink:href="#DejaVuSans-65" x="1287.199219"/>
     <use xlink:href="#DejaVuSans-6e" x="1348.722656"/>
     <use xlink:href="#DejaVuSans-74" x="1412.101562"/>
     <use xlink:href="#DejaVuSans-3b" x="1451.310547"/>
     <use xlink:href="#DejaVuSans-20" x="1485.001953"/>
     <use xlink:href="#DejaVuSans-6e" x="1516.789062"/>
     <use xlink:href="#DejaVuSans-65" x="1580.167969"/>
     <use xlink:href="#DejaVuSans-67" x="1641.691406"/>
     <use xlink:href="#DejaVuSans-61" x="1705.167969"/>
     <use xlink:href="#DejaVuSans-74" x="1766.447266"/>
     <use xlink:href="#DejaVuSans-69" x="1805.65625"/>
     <use xlink:href="#DejaVuSans-76" x="1833.439453"/>
     <use xlink:href="#DejaVuSans-65" x="1892.619141"/>
     <use xlink:href="#DejaVuSans-3a" x="1954.142578"/>
     <use xlink:href="#DejaVuSans-20" x="1987.833984"/>
     <use xlink:href="#DejaVuSans-6d" x="2019.621094"/>
     <use xlink:href="#DejaVuSans-6f" x="2117.033203"/>
     <use xlink:href="#DejaVuSans-72" x="2178.214844"/>
     <use xlink:href="#DejaVuSans-74" x="2219.328125"/>
     <use xlink:href="#DejaVuSans-61" x="2258.537109"/>
     <use xlink:href="#DejaVuSans-6c" x="2319.816406"/>
     <use xlink:href="#DejaVuSans-69" x="2347.599609"/>
     <use xlink:href="#DejaVuSans-74" x="2375.382812"/>
     <use xlink:href="#DejaVuSans-79" x="2414.591797"/>
     <use xlink:href="#DejaVuSans-2d" x="2472.021484"/>
     <use xlink:href="#DejaVuSans-70" x="2508.105469"/>
     <use xlink:href="#DejaVuSans-72" x="2571.582031"/>
     <use xlink:href="#DejaVuSans-6f" x="2610.445312"/>
     <use xlink:href="#DejaVuSans-6d" x="2671.626953"/>
     <use xlink:href="#DejaVuSans-69" x="2769.039062"/>
     <use xlink:href="#DejaVuSans-6e" x="2796.822266"/>
     <use xlink:href="#DejaVuSans-65" x="2860.201172"/>
     <use xlink:href="#DejaVuSans-6e" x="2921.724609"/>
     <use xlink:href="#DejaVuSans-74" x="2985.103516"/>
    </g>
   </g>
   <g id="text_39">
    <!-- Hidden Disability Burden Index by state, 2021 -->
    <g transform="translate(246.335313 16.318125) scale(0.12 -0.12)">
     <defs>
      <path id="DejaVuSans-Bold-48" d="M 588 4666 
L 1791 4666 
L 1791 2888 
L 3566 2888 
L 3566 4666 
L 4769 4666 
L 4769 0 
L 3566 0 
L 3566 1978 
L 1791 1978 
L 1791 0 
L 588 0 
L 588 4666 
z
" transform="scale(0.015625)"/>
      <path id="DejaVuSans-Bold-69" d="M 538 3500 
L 1656 3500 
L 1656 0 
L 538 0 
L 538 3500 
z
M 538 4863 
L 1656 4863 
L 1656 3950 
L 538 3950 
L 538 4863 
z
" transform="scale(0.015625)"/>
      <path id="DejaVuSans-Bold-64" d="M 2919 2988 
L 2919 4863 
L 4044 4863 
L 4044 0 
L 2919 0 
L 2919 506 
Q 2688 197 2409 53 
Q 2131 -91 1766 -91 
Q 1119 -91 703 423 
Q 288 938 288 1747 
Q 288 2556 703 3070 
Q 1119 3584 1766 3584 
Q 2128 3584 2408 3439 
Q 2688 3294 2919 2988 
z
M 2181 722 
Q 2541 722 2730 984 
Q 2919 1247 2919 1747 
Q 2919 2247 2730 2509 
Q 2541 2772 2181 2772 
Q 1825 2772 1636 2509 
Q 1447 2247 1447 1747 
Q 1447 1247 1636 984 
Q 1825 722 2181 722 
z
" transform="scale(0.015625)"/>
      <path id="DejaVuSans-Bold-65" d="M 4031 1759 
L 4031 1441 
L 1416 1441 
Q 1456 1047 1700 850 
Q 1944 653 2381 653 
Q 2734 653 3104 758 
Q 3475 863 3866 1075 
L 3866 213 
Q 3469 63 3072 -14 
Q 2675 -91 2278 -91 
Q 1328 -91 801 392 
Q 275 875 275 1747 
Q 275 2603 792 3093 
Q 1309 3584 2216 3584 
Q 3041 3584 3536 3087 
Q 4031 2591 4031 1759 
z
M 2881 2131 
Q 2881 2450 2695 2645 
Q 2509 2841 2209 2841 
Q 1884 2841 1681 2658 
Q 1478 2475 1428 2131 
L 2881 2131 
z
" transform="scale(0.015625)"/>
      <path id="DejaVuSans-Bold-6e" d="M 4056 2131 
L 4056 0 
L 2931 0 
L 2931 347 
L 2931 1631 
Q 2931 2084 2911 2256 
Q 2891 2428 2841 2509 
Q 2775 2619 2662 2680 
Q 2550 2741 2406 2741 
Q 2056 2741 1856 2470 
Q 1656 2200 1656 1722 
L 1656 0 
L 538 0 
L 538 3500 
L 1656 3500 
L 1656 2988 
Q 1909 3294 2193 3439 
Q 2478 3584 2822 3584 
Q 3428 3584 3742 3212 
Q 4056 2841 4056 2131 
z
" transform="scale(0.015625)"/>
      <path id="DejaVuSans-Bold-20" transform="scale(0.015625)"/>
      <path id="DejaVuSans-Bold-44" d="M 1791 3756 
L 1791 909 
L 2222 909 
Q 2959 909 3348 1275 
Q 3738 1641 3738 2338 
Q 3738 3031 3350 3393 
Q 2963 3756 2222 3756 
L 1791 3756 
z
M 588 4666 
L 1856 4666 
Q 2919 4666 3439 4514 
Q 3959 4363 4331 4000 
Q 4659 3684 4818 3271 
Q 4978 2859 4978 2338 
Q 4978 1809 4818 1395 
Q 4659 981 4331 666 
Q 3956 303 3431 151 
Q 2906 0 1856 0 
L 588 0 
L 588 4666 
z
" transform="scale(0.015625)"/>
      <path id="DejaVuSans-Bold-73" d="M 3272 3391 
L 3272 2541 
Q 2913 2691 2578 2766 
Q 2244 2841 1947 2841 
Q 1628 2841 1473 2761 
Q 1319 2681 1319 2516 
Q 1319 2381 1436 2309 
Q 1553 2238 1856 2203 
L 2053 2175 
Q 2913 2066 3209 1816 
Q 3506 1566 3506 1031 
Q 3506 472 3093 190 
Q 2681 -91 1863 -91 
Q 1516 -91 1145 -36 
Q 775 19 384 128 
L 384 978 
Q 719 816 1070 734 
Q 1422 653 1784 653 
Q 2113 653 2278 743 
Q 2444 834 2444 1013 
Q 2444 1163 2330 1236 
Q 2216 1309 1875 1350 
L 1678 1375 
Q 931 1469 631 1722 
Q 331 1975 331 2491 
Q 331 3047 712 3315 
Q 1094 3584 1881 3584 
Q 2191 3584 2531 3537 
Q 2872 3491 3272 3391 
z
" transform="scale(0.015625)"/>
      <path id="DejaVuSans-Bold-61" d="M 2106 1575 
Q 1756 1575 1579 1456 
Q 1403 1338 1403 1106 
Q 1403 894 1545 773 
Q 1688 653 1941 653 
Q 2256 653 2472 879 
Q 2688 1106 2688 1447 
L 2688 1575 
L 2106 1575 
z
M 3816 1997 
L 3816 0 
L 2688 0 
L 2688 519 
Q 2463 200 2181 54 
Q 1900 -91 1497 -91 
Q 953 -91 614 226 
Q 275 544 275 1050 
Q 275 1666 698 1953 
Q 1122 2241 2028 2241 
L 2688 2241 
L 2688 2328 
Q 2688 2594 2478 2717 
Q 2269 2841 1825 2841 
Q 1466 2841 1156 2769 
Q 847 2697 581 2553 
L 581 3406 
Q 941 3494 1303 3539 
Q 1666 3584 2028 3584 
Q 2975 3584 3395 3211 
Q 3816 2838 3816 1997 
z
" transform="scale(0.015625)"/>
      <path id="DejaVuSans-Bold-62" d="M 2400 722 
Q 2759 722 2948 984 
Q 3138 1247 3138 1747 
Q 3138 2247 2948 2509 
Q 2759 2772 2400 2772 
Q 2041 2772 1848 2508 
Q 1656 2244 1656 1747 
Q 1656 1250 1848 986 
Q 2041 722 2400 722 
z
M 1656 2988 
Q 1888 3294 2169 3439 
Q 2450 3584 2816 3584 
Q 3463 3584 3878 3070 
Q 4294 2556 4294 1747 
Q 4294 938 3878 423 
Q 3463 -91 2816 -91 
Q 2450 -91 2169 54 
Q 1888 200 1656 506 
L 1656 0 
L 538 0 
L 538 4863 
L 1656 4863 
L 1656 2988 
z
" transform="scale(0.015625)"/>
      <path id="DejaVuSans-Bold-6c" d="M 538 4863 
L 1656 4863 
L 1656 0 
L 538 0 
L 538 4863 
z
" transform="scale(0.015625)"/>
      <path id="DejaVuSans-Bold-74" d="M 1759 4494 
L 1759 3500 
L 2913 3500 
L 2913 2700 
L 1759 2700 
L 1759 1216 
Q 1759 972 1856 886 
Q 1953 800 2241 800 
L 2816 800 
L 2816 0 
L 1856 0 
Q 1194 0 917 276 
Q 641 553 641 1216 
L 641 2700 
L 84 2700 
L 84 3500 
L 641 3500 
L 641 4494 
L 1759 4494 
z
" transform="scale(0.015625)"/>
      <path id="DejaVuSans-Bold-79" d="M 78 3500 
L 1197 3500 
L 2138 1125 
L 2938 3500 
L 4056 3500 
L 2584 -331 
Q 2363 -916 2067 -1148 
Q 1772 -1381 1288 -1381 
L 641 -1381 
L 641 -647 
L 991 -647 
Q 1275 -647 1404 -556 
Q 1534 -466 1606 -231 
L 1638 -134 
L 78 3500 
z
" transform="scale(0.015625)"/>
      <path id="DejaVuSans-Bold-42" d="M 2456 2859 
Q 2741 2859 2887 2984 
Q 3034 3109 3034 3353 
Q 3034 3594 2887 3720 
Q 2741 3847 2456 3847 
L 1791 3847 
L 1791 2859 
L 2456 2859 
z
M 2497 819 
Q 2859 819 3042 972 
Q 3225 1125 3225 1434 
Q 3225 1738 3044 1889 
Q 2863 2041 2497 2041 
L 1791 2041 
L 1791 819 
L 2497 819 
z
M 3616 2497 
Q 4003 2384 4215 2081 
Q 4428 1778 4428 1338 
Q 4428 663 3972 331 
Q 3516 0 2584 0 
L 588 0 
L 588 4666 
L 2394 4666 
Q 3366 4666 3802 4372 
Q 4238 4078 4238 3431 
Q 4238 3091 4078 2852 
Q 3919 2613 3616 2497 
z
" transform="scale(0.015625)"/>
      <path id="DejaVuSans-Bold-75" d="M 500 1363 
L 500 3500 
L 1625 3500 
L 1625 3150 
Q 1625 2866 1622 2436 
Q 1619 2006 1619 1863 
Q 1619 1441 1641 1255 
Q 1663 1069 1716 984 
Q 1784 875 1895 815 
Q 2006 756 2150 756 
Q 2500 756 2700 1025 
Q 2900 1294 2900 1772 
L 2900 3500 
L 4019 3500 
L 4019 0 
L 2900 0 
L 2900 506 
Q 2647 200 2364 54 
Q 2081 -91 1741 -91 
Q 1134 -91 817 281 
Q 500 653 500 1363 
z
" transform="scale(0.015625)"/>
      <path id="DejaVuSans-Bold-72" d="M 3138 2547 
Q 2991 2616 2845 2648 
Q 2700 2681 2553 2681 
Q 2122 2681 1889 2404 
Q 1656 2128 1656 1613 
L 1656 0 
L 538 0 
L 538 3500 
L 1656 3500 
L 1656 2925 
Q 1872 3269 2151 3426 
Q 2431 3584 2822 3584 
Q 2878 3584 2943 3579 
Q 3009 3575 3134 3559 
L 3138 2547 
z
" transform="scale(0.015625)"/>
      <path id="DejaVuSans-Bold-49" d="M 588 4666 
L 1791 4666 
L 1791 0 
L 588 0 
L 588 4666 
z
" transform="scale(0.015625)"/>
      <path id="DejaVuSans-Bold-78" d="M 1422 1791 
L 159 3500 
L 1344 3500 
L 2059 2463 
L 2784 3500 
L 3969 3500 
L 2706 1797 
L 4031 0 
L 2847 0 
L 2059 1106 
L 1281 0 
L 97 0 
L 1422 1791 
z
" transform="scale(0.015625)"/>
      <path id="DejaVuSans-Bold-2c" d="M 653 1209 
L 1778 1209 
L 1778 256 
L 1006 -909 
L 341 -909 
L 653 256 
L 653 1209 
z
" transform="scale(0.015625)"/>
      <path id="DejaVuSans-Bold-32" d="M 1844 884 
L 3897 884 
L 3897 0 
L 506 0 
L 506 884 
L 2209 2388 
Q 2438 2594 2547 2791 
Q 2656 2988 2656 3200 
Q 2656 3528 2436 3728 
Q 2216 3928 1850 3928 
Q 1569 3928 1234 3808 
Q 900 3688 519 3450 
L 519 4475 
Q 925 4609 1322 4679 
Q 1719 4750 2100 4750 
Q 2938 4750 3402 4381 
Q 3866 4013 3866 3353 
Q 3866 2972 3669 2642 
Q 3472 2313 2841 1759 
L 1844 884 
z
" transform="scale(0.015625)"/>
      <path id="DejaVuSans-Bold-30" d="M 2944 2338 
Q 2944 3213 2780 3570 
Q 2616 3928 2228 3928 
Q 1841 3928 1675 3570 
Q 1509 3213 1509 2338 
Q 1509 1453 1675 1090 
Q 1841 728 2228 728 
Q 2613 728 2778 1090 
Q 2944 1453 2944 2338 
z
M 4147 2328 
Q 4147 1169 3647 539 
Q 3147 -91 2228 -91 
Q 1306 -91 806 539 
Q 306 1169 306 2328 
Q 306 3491 806 4120 
Q 1306 4750 2228 4750 
Q 3147 4750 3647 4120 
Q 4147 3491 4147 2328 
z
" transform="scale(0.015625)"/>
      <path id="DejaVuSans-Bold-31" d="M 750 831 
L 1813 831 
L 1813 3847 
L 722 3622 
L 722 4441 
L 1806 4666 
L 2950 4666 
L 2950 831 
L 4013 831 
L 4013 0 
L 750 0 
L 750 831 
z
" transform="scale(0.015625)"/>
     </defs>
     <use xlink:href="#DejaVuSans-Bold-48"/>
     <use xlink:href="#DejaVuSans-Bold-69" x="83.691406"/>
     <use xlink:href="#DejaVuSans-Bold-64" x="117.96875"/>
     <use xlink:href="#DejaVuSans-Bold-64" x="189.550781"/>
     <use xlink:href="#DejaVuSans-Bold-65" x="261.132812"/>
     <use xlink:href="#DejaVuSans-Bold-6e" x="328.955078"/>
     <use xlink:href="#DejaVuSans-Bold-20" x="400.146484"/>
     <use xlink:href="#DejaVuSans-Bold-44" x="434.960938"/>
     <use xlink:href="#DejaVuSans-Bold-69" x="517.96875"/>
     <use xlink:href="#DejaVuSans-Bold-73" x="552.246094"/>
     <use xlink:href="#DejaVuSans-Bold-61" x="611.767578"/>
     <use xlink:href="#DejaVuSans-Bold-62" x="679.248047"/>
     <use xlink:href="#DejaVuSans-Bold-69" x="750.830078"/>
     <use xlink:href="#DejaVuSans-Bold-6c" x="785.107422"/>
     <use xlink:href="#DejaVuSans-Bold-69" x="819.384766"/>
     <use xlink:href="#DejaVuSans-Bold-74" x="853.662109"/>
     <use xlink:href="#DejaVuSans-Bold-79" x="901.464844"/>
     <use xlink:href="#DejaVuSans-Bold-20" x="966.650391"/>
     <use xlink:href="#DejaVuSans-Bold-42" x="1001.464844"/>
     <use xlink:href="#DejaVuSans-Bold-75" x="1077.685547"/>
     <use xlink:href="#DejaVuSans-Bold-72" x="1148.876953"/>
     <use xlink:href="#DejaVuSans-Bold-64" x="1198.193359"/>
     <use xlink:href="#DejaVuSans-Bold-65" x="1269.775391"/>
     <use xlink:href="#DejaVuSans-Bold-6e" x="1337.597656"/>
     <use xlink:href="#DejaVuSans-Bold-20" x="1408.789062"/>
     <use xlink:href="#DejaVuSans-Bold-49" x="1443.603516"/>
     <use xlink:href="#DejaVuSans-Bold-6e" x="1480.810547"/>
     <use xlink:href="#DejaVuSans-Bold-64" x="1552.001953"/>
     <use xlink:href="#DejaVuSans-Bold-65" x="1623.583984"/>
     <use xlink:href="#DejaVuSans-Bold-78" x="1691.40625"/>
     <use xlink:href="#DejaVuSans-Bold-20" x="1755.908203"/>
     <use xlink:href="#DejaVuSans-Bold-62" x="1790.722656"/>
     <use xlink:href="#DejaVuSans-Bold-79" x="1862.304688"/>
     <use xlink:href="#DejaVuSans-Bold-20" x="1927.490234"/>
     <use xlink:href="#DejaVuSans-Bold-73" x="1962.304688"/>
     <use xlink:href="#DejaVuSans-Bold-74" x="2021.826172"/>
     <use xlink:href="#DejaVuSans-Bold-61" x="2069.628906"/>
     <use xlink:href="#DejaVuSans-Bold-74" x="2137.109375"/>
     <use xlink:href="#DejaVuSans-Bold-65" x="2184.912109"/>
     <use xlink:href="#DejaVuSans-Bold-2c" x="2252.734375"/>
     <use xlink:href="#DejaVuSans-Bold-20" x="2290.722656"/>
     <use xlink:href="#DejaVuSans-Bold-32" x="2325.537109"/>
     <use xlink:href="#DejaVuSans-Bold-30" x="2395.117188"/>
     <use xlink:href="#DejaVuSans-Bold-32" x="2464.697266"/>
     <use xlink:href="#DejaVuSans-Bold-31" x="2534.277344"/>
    </g>
   </g>
  </g>
 </g>
 <defs>
  <clipPath id="p97a7c059dc">
   <rect x="165.414062" y="28.318125" width="474.3" height="443.52"/>
  </clipPath>
 </defs>
</svg>
