<?xml version="1.0" encoding="utf-8" standalone="no"?>
<!DOCTYPE svg PUBLIC "-//W3C//DTD SVG 1.1//EN"
  "http://www.w3.org/Graphics/SVG/1.1/DTD/svg11.dtd">
<svg xmlns:xlink="http://www.w3.org/1999/xlink" width="572.4pt" height="482.797969pt" viewBox="0 0 572.4 482.797969" xmlns="http://www.w3.org/2000/svg" version="1.1">
 <metadata>
  <rdf:RDF xmlns:dc="http://purl.org/dc/elements/1.1/" xmlns:cc="http://creativecommons.org/ns#" xmlns:rdf="http://www.w3.org/1999/02/22-rdf-syntax-ns#">
   <cc:Work>
    <dc:type rdf:resource="http://purl.org/dc/dcmitype/StillImage"/>
    <dc:date>2026-04-23T23:00:08.684957</dc:date>
    <dc:format>image/svg+xml</dc:format>
    <dc:creator>
     <cc:Agent>
      <dc:title>Matplotlib v3.10.7, https://matplotlib.org/</dc:title>
     </cc:Agent>
    </dc:creator>
   </cc:Work>
  </rdf:RDF>
 </metadata>
 <defs>
  <style type="text/css">*{stroke-linejoin: round; stroke-linecap: butt}</style>
 </defs>
 <g id="figure_1">
  <g id="patch_1">
   <path d="M 0 482.797969 
L 572.4 482.797969 
L 572.4 0 
L 0 0 
z
" style="fill: #ffffff"/>
  </g>
  <g id="axes_1">
   <g id="text_1">
    <g id="patch_2">
     <path d="M 171.86625 292.519594 
L 400.53375 292.519594 
Q 406.53375 292.519594 406.53375 286.519594 
L 406.53375 221.156344 
Q 406.53375 215.156344 400.53375 215.156344 
L 171.86625 215.156344 
Q 165.86625 215.156344 165.86625 221.156344 
L 165.86625 286.519594 
Q 165.86625 292.519594 171.86625 292.519594 
z
" style="fill: #f5f5f5; stroke: #808080; stroke-linejoin: miter"/>
    </g>
    <!-- [PLACEHOLDER] -->
    <g style="fill: #808080" transform="translate(237.283125 230.274469) scale(0.12 -0.12)">
     <defs>
      <path id="DejaVuSans-5b" d="M 550 4863 
L 1875 4863 
L 1875 4416 
L 1125 4416 
L 1125 -397 
L 1875 -397 
L 1875 -844 
L 550 -844 
L 550 4863 
z
" transform="scale(0.015625)"/>
      <path id="DejaVuSans-50" d="M 1259 4147 
L 1259 2394 
L 2053 2394 
Q 2494 2394 2734 2622 
Q 2975 2850 2975 3272 
Q 2975 3691 2734 3919 
Q 2494 4147 2053 4147 
L 1259 4147 
z
M 628 4666 
L 2053 4666 
Q 2838 4666 3239 4311 
Q 3641 3956 3641 3272 
Q 3641 2581 3239 2228 
Q 2838 1875 2053 1875 
L 1259 1875 
L 1259 0 
L 628 0 
L 628 4666 
z
" transform="scale(0.015625)"/>
      <path id="DejaVuSans-4c" d="M 628 4666 
L 1259 4666 
L 1259 531 
L 3531 531 
L 3531 0 
L 628 0 
L 628 4666 
z
" transform="scale(0.015625)"/>
      <path id="DejaVuSans-41" d="M 2188 4044 
L 1331 1722 
L 3047 1722 
L 2188 4044 
z
M 1831 4666 
L 2547 4666 
L 4325 0 
L 3669 0 
L 3244 1197 
L 1141 1197 
L 716 0 
L 50 0 
L 1831 4666 
z
" transform="scale(0.015625)"/>
      <path id="DejaVuSans-43" d="M 4122 4306 
L 4122 3641 
Q 3803 3938 3442 4084 
Q 3081 4231 2675 4231 
Q 1875 4231 1450 3742 
Q 1025 3253 1025 2328 
Q 1025 1406 1450 917 
Q 1875 428 2675 428 
Q 3081 428 3442 575 
Q 3803 722 4122 1019 
L 4122 359 
Q 3791 134 3420 21 
Q 3050 -91 2638 -91 
Q 1578 -91 968 557 
Q 359 1206 359 2328 
Q 359 3453 968 4101 
Q 1578 4750 2638 4750 
Q 3056 4750 3426 4639 
Q 3797 4528 4122 4306 
z
" transform="scale(0.015625)"/>
      <path id="DejaVuSans-45" d="M 628 4666 
L 3578 4666 
L 3578 4134 
L 1259 4134 
L 1259 2753 
L 3481 2753 
L 3481 2222 
L 1259 2222 
L 1259 531 
L 3634 531 
L 3634 0 
L 628 0 
L 628 4666 
z
" transform="scale(0.015625)"/>
      <path id="DejaVuSans-48" d="M 628 4666 
L 1259 4666 
L 1259 2753 
L 3553 2753 
L 3553 4666 
L 4184 4666 
L 4184 0 
L 3553 0 
L 3553 2222 
L 1259 2222 
L 1259 0 
L 628 0 
L 628 4666 
z
" transform="scale(0.015625)"/>
      <path id="DejaVuSans-4f" d="M 2522 4238 
Q 1834 4238 1429 3725 
Q 1025 3213 1025 2328 
Q 1025 1447 1429 934 
Q 1834 422 2522 422 
Q 3209 422 3611 934 
Q 4013 1447 4013 2328 
Q 4013 3213 3611 3725 
Q 3209 4238 2522 4238 
z
M 2522 4750 
Q 3503 4750 4090 4092 
Q 4678 3434 4678 2328 
Q 4678 1225 4090 567 
Q 3503 -91 2522 -91 
Q 1538 -91 948 565 
Q 359 1222 359 2328 
Q 359 3434 948 4092 
Q 1538 4750 2522 4750 
z
" transform="scale(0.015625)"/>
      <path id="DejaVuSans-44" d="M 1259 4147 
L 1259 519 
L 2022 519 
Q 2988 519 3436 956 
Q 3884 1394 3884 2338 
Q 3884 3275 3436 3711 
Q 2988 4147 2022 4147 
L 1259 4147 
z
M 628 4666 
L 1925 4666 
Q 3281 4666 3915 4102 
Q 4550 3538 4550 2338 
Q 4550 1131 3912 565 
Q 3275 0 1925 0 
L 628 0 
L 628 4666 
z
" transform="scale(0.015625)"/>
      <path id="DejaVuSans-52" d="M 2841 2188 
Q 3044 2119 3236 1894 
Q 3428 1669 3622 1275 
L 4263 0 
L 3584 0 
L 2988 1197 
Q 2756 1666 2539 1819 
Q 2322 1972 1947 1972 
L 1259 1972 
L 1259 0 
L 628 0 
L 628 4666 
L 2053 4666 
Q 2853 4666 3247 4331 
Q 3641 3997 3641 3322 
Q 3641 2881 3436 2590 
Q 3231 2300 2841 2188 
z
M 1259 4147 
L 1259 2491 
L 2053 2491 
Q 2509 2491 2742 2702 
Q 2975 2913 2975 3322 
Q 2975 3731 2742 3939 
Q 2509 4147 2053 4147 
L 1259 4147 
z
" transform="scale(0.015625)"/>
      <path id="DejaVuSans-5d" d="M 1947 4863 
L 1947 -844 
L 622 -844 
L 622 -397 
L 1369 -397 
L 1369 4416 
L 622 4416 
L 622 4863 
L 1947 4863 
z
" transform="scale(0.015625)"/>
     </defs>
     <use xlink:href="#DejaVuSans-5b"/>
     <use xlink:href="#DejaVuSans-50" transform="translate(39.013672 0)"/>
     <use xlink:href="#DejaVuSans-4c" transform="translate(99.316406 0)"/>
     <use xlink:href="#DejaVuSans-41" transform="translate(157.279297 0)"/>
     <use xlink:href="#DejaVuSans-43" transform="translate(223.9375 0)"/>
     <use xlink:href="#DejaVuSans-45" transform="translate(293.761719 0)"/>
     <use xlink:href="#DejaVuSans-48" transform="translate(356.945312 0)"/>
     <use xlink:href="#DejaVuSans-4f" transform="translate(432.140625 0)"/>
     <use xlink:href="#DejaVuSans-4c" transform="translate(510.851562 0)"/>
     <use xlink:href="#DejaVuSans-44" transform="translate(566.564453 0)"/>
     <use xlink:href="#DejaVuSans-45" transform="translate(643.566406 0)"/>
     <use xlink:href="#DejaVuSans-52" transform="translate(706.75 0)"/>
     <use xlink:href="#DejaVuSans-5d" transform="translate(776.232422 0)"/>
    </g>
    <!-- National GBD trend data not available -->
    <g style="fill: #808080" transform="translate(171.86625 243.711844) scale(0.12 -0.12)">
     <defs>
      <path id="DejaVuSans-4e" d="M 628 4666 
L 1478 4666 
L 3547 763 
L 3547 4666 
L 4159 4666 
L 4159 0 
L 3309 0 
L 1241 3903 
L 1241 0 
L 628 0 
L 628 4666 
z
" transform="scale(0.015625)"/>
      <path id="DejaVuSans-61" d="M 2194 1759 
Q 1497 1759 1228 1600 
Q 959 1441 959 1056 
Q 959 750 1161 570 
Q 1363 391 1709 391 
Q 2188 391 2477 730 
Q 2766 1069 2766 1631 
L 2766 1759 
L 2194 1759 
z
M 3341 1997 
L 3341 0 
L 2766 0 
L 2766 531 
Q 2569 213 2275 61 
Q 1981 -91 1556 -91 
Q 1019 -91 701 211 
Q 384 513 384 1019 
Q 384 1609 779 1909 
Q 1175 2209 1959 2209 
L 2766 2209 
L 2766 2266 
Q 2766 2663 2505 2880 
Q 2244 3097 1772 3097 
Q 1472 3097 1187 3025 
Q 903 2953 641 2809 
L 641 3341 
Q 956 3463 1253 3523 
Q 1550 3584 1831 3584 
Q 2591 3584 2966 3190 
Q 3341 2797 3341 1997 
z
" transform="scale(0.015625)"/>
      <path id="DejaVuSans-74" d="M 1172 4494 
L 1172 3500 
L 2356 3500 
L 2356 3053 
L 1172 3053 
L 1172 1153 
Q 1172 725 1289 603 
Q 1406 481 1766 481 
L 2356 481 
L 2356 0 
L 1766 0 
Q 1100 0 847 248 
Q 594 497 594 1153 
L 594 3053 
L 172 3053 
L 172 3500 
L 594 3500 
L 594 4494 
L 1172 4494 
z
" transform="scale(0.015625)"/>
      <path id="DejaVuSans-69" d="M 603 3500 
L 1178 3500 
L 1178 0 
L 603 0 
L 603 3500 
z
M 603 4863 
L 1178 4863 
L 1178 4134 
L 603 4134 
L 603 4863 
z
" transform="scale(0.015625)"/>
      <path id="DejaVuSans-6f" d="M 1959 3097 
Q 1497 3097 1228 2736 
Q 959 2375 959 1747 
Q 959 1119 1226 758 
Q 1494 397 1959 397 
Q 2419 397 2687 759 
Q 2956 1122 2956 1747 
Q 2956 2369 2687 2733 
Q 2419 3097 1959 3097 
z
M 1959 3584 
Q 2709 3584 3137 3096 
Q 3566 2609 3566 1747 
Q 3566 888 3137 398 
Q 2709 -91 1959 -91 
Q 1206 -91 779 398 
Q 353 888 353 1747 
Q 353 2609 779 3096 
Q 1206 3584 1959 3584 
z
" transform="scale(0.015625)"/>
      <path id="DejaVuSans-6e" d="M 3513 2113 
L 3513 0 
L 2938 0 
L 2938 2094 
Q 2938 2591 2744 2837 
Q 2550 3084 2163 3084 
Q 1697 3084 1428 2787 
Q 1159 2491 1159 1978 
L 1159 0 
L 581 0 
L 581 3500 
L 1159 3500 
L 1159 2956 
Q 1366 3272 1645 3428 
Q 1925 3584 2291 3584 
Q 2894 3584 3203 3211 
Q 3513 2838 3513 2113 
z
" transform="scale(0.015625)"/>
      <path id="DejaVuSans-6c" d="M 603 4863 
L 1178 4863 
L 1178 0 
L 603 0 
L 603 4863 
z
" transform="scale(0.015625)"/>
      <path id="DejaVuSans-20" transform="scale(0.015625)"/>
      <path id="DejaVuSans-47" d="M 3809 666 
L 3809 1919 
L 2778 1919 
L 2778 2438 
L 4434 2438 
L 4434 434 
Q 4069 175 3628 42 
Q 3188 -91 2688 -91 
Q 1594 -91 976 548 
Q 359 1188 359 2328 
Q 359 3472 976 4111 
Q 1594 4750 2688 4750 
Q 3144 4750 3555 4637 
Q 3966 4525 4313 4306 
L 4313 3634 
Q 3963 3931 3569 4081 
Q 3175 4231 2741 4231 
Q 1884 4231 1454 3753 
Q 1025 3275 1025 2328 
Q 1025 1384 1454 906 
Q 1884 428 2741 428 
Q 3075 428 3337 486 
Q 3600 544 3809 666 
z
" transform="scale(0.015625)"/>
      <path id="DejaVuSans-42" d="M 1259 2228 
L 1259 519 
L 2272 519 
Q 2781 519 3026 730 
Q 3272 941 3272 1375 
Q 3272 1813 3026 2020 
Q 2781 2228 2272 2228 
L 1259 2228 
z
M 1259 4147 
L 1259 2741 
L 2194 2741 
Q 2656 2741 2882 2914 
Q 3109 3088 3109 3444 
Q 3109 3797 2882 3972 
Q 2656 4147 2194 4147 
L 1259 4147 
z
M 628 4666 
L 2241 4666 
Q 2963 4666 3353 4366 
Q 3744 4066 3744 3513 
Q 3744 3084 3544 2831 
Q 3344 2578 2956 2516 
Q 3422 2416 3680 2098 
Q 3938 1781 3938 1306 
Q 3938 681 3513 340 
Q 3088 0 2303 0 
L 628 0 
L 628 4666 
z
" transform="scale(0.015625)"/>
      <path id="DejaVuSans-72" d="M 2631 2963 
Q 2534 3019 2420 3045 
Q 2306 3072 2169 3072 
Q 1681 3072 1420 2755 
Q 1159 2438 1159 1844 
L 1159 0 
L 581 0 
L 581 3500 
L 1159 3500 
L 1159 2956 
Q 1341 3275 1631 3429 
Q 1922 3584 2338 3584 
Q 2397 3584 2469 3576 
Q 2541 3569 2628 3553 
L 2631 2963 
z
" transform="scale(0.015625)"/>
      <path id="DejaVuSans-65" d="M 3597 1894 
L 3597 1613 
L 953 1613 
Q 991 1019 1311 708 
Q 1631 397 2203 397 
Q 2534 397 2845 478 
Q 3156 559 3463 722 
L 3463 178 
Q 3153 47 2828 -22 
Q 2503 -91 2169 -91 
Q 1331 -91 842 396 
Q 353 884 353 1716 
Q 353 2575 817 3079 
Q 1281 3584 2069 3584 
Q 2775 3584 3186 3129 
Q 3597 2675 3597 1894 
z
M 3022 2063 
Q 3016 2534 2758 2815 
Q 2500 3097 2075 3097 
Q 1594 3097 1305 2825 
Q 1016 2553 972 2059 
L 3022 2063 
z
" transform="scale(0.015625)"/>
      <path id="DejaVuSans-64" d="M 2906 2969 
L 2906 4863 
L 3481 4863 
L 3481 0 
L 2906 0 
L 2906 525 
Q 2725 213 2448 61 
Q 2172 -91 1784 -91 
Q 1150 -91 751 415 
Q 353 922 353 1747 
Q 353 2572 751 3078 
Q 1150 3584 1784 3584 
Q 2172 3584 2448 3432 
Q 2725 3281 2906 2969 
z
M 947 1747 
Q 947 1113 1208 752 
Q 1469 391 1925 391 
Q 2381 391 2643 752 
Q 2906 1113 2906 1747 
Q 2906 2381 2643 2742 
Q 2381 3103 1925 3103 
Q 1469 3103 1208 2742 
Q 947 2381 947 1747 
z
" transform="scale(0.015625)"/>
      <path id="DejaVuSans-76" d="M 191 3500 
L 800 3500 
L 1894 563 
L 2988 3500 
L 3597 3500 
L 2284 0 
L 1503 0 
L 191 3500 
z
" transform="scale(0.015625)"/>
      <path id="DejaVuSans-62" d="M 3116 1747 
Q 3116 2381 2855 2742 
Q 2594 3103 2138 3103 
Q 1681 3103 1420 2742 
Q 1159 2381 1159 1747 
Q 1159 1113 1420 752 
Q 1681 391 2138 391 
Q 2594 391 2855 752 
Q 3116 1113 3116 1747 
z
M 1159 2969 
Q 1341 3281 1617 3432 
Q 1894 3584 2278 3584 
Q 2916 3584 3314 3078 
Q 3713 2572 3713 1747 
Q 3713 922 3314 415 
Q 2916 -91 2278 -91 
Q 1894 -91 1617 61 
Q 1341 213 1159 525 
L 1159 0 
L 581 0 
L 581 4863 
L 1159 4863 
L 1159 2969 
z
" transform="scale(0.015625)"/>
     </defs>
     <use xlink:href="#DejaVuSans-4e"/>
     <use xlink:href="#DejaVuSans-61" transform="translate(74.804688 0)"/>
     <use xlink:href="#DejaVuSans-74" transform="translate(136.083984 0)"/>
     <use xlink:href="#DejaVuSans-69" transform="translate(175.292969 0)"/>
     <use xlink:href="#DejaVuSans-6f" transform="translate(203.076172 0)"/>
     <use xlink:href="#DejaVuSans-6e" transform="translate(264.257812 0)"/>
     <use xlink:href="#DejaVuSans-61" transform="translate(327.636719 0)"/>
     <use xlink:href="#DejaVuSans-6c" transform="translate(388.916016 0)"/>
     <use xlink:href="#DejaVuSans-20" transform="translate(416.699219 0)"/>
     <use xlink:href="#DejaVuSans-47" transform="translate(448.486328 0)"/>
     <use xlink:href="#DejaVuSans-42" transform="translate(525.976562 0)"/>
     <use xlink:href="#DejaVuSans-44" transform="translate(594.580078 0)"/>
     <use xlink:href="#DejaVuSans-20" transform="translate(671.582031 0)"/>
     <use xlink:href="#DejaVuSans-74" transform="translate(703.369141 0)"/>
     <use xlink:href="#DejaVuSans-72" transform="translate(742.578125 0)"/>
     <use xlink:href="#DejaVuSans-65" transform="translate(781.441406 0)"/>
     <use xlink:href="#DejaVuSans-6e" transform="translate(842.964844 0)"/>
     <use xlink:href="#DejaVuSans-64" transform="translate(906.34375 0)"/>
     <use xlink:href="#DejaVuSans-20" transform="translate(969.820312 0)"/>
     <use xlink:href="#DejaVuSans-64" transform="translate(1001.607422 0)"/>
     <use xlink:href="#DejaVuSans-61" transform="translate(1065.083984 0)"/>
     <use xlink:href="#DejaVuSans-74" transform="translate(1126.363281 0)"/>
     <use xlink:href="#DejaVuSans-61" transform="translate(1165.572266 0)"/>
     <use xlink:href="#DejaVuSans-20" transform="translate(1226.851562 0)"/>
     <use xlink:href="#DejaVuSans-6e" transform="translate(1258.638672 0)"/>
     <use xlink:href="#DejaVuSans-6f" transform="translate(1322.017578 0)"/>
     <use xlink:href="#DejaVuSans-74" transform="translate(1383.199219 0)"/>
     <use xlink:href="#DejaVuSans-20" transform="translate(1422.408203 0)"/>
     <use xlink:href="#DejaVuSans-61" transform="translate(1454.195312 0)"/>
     <use xlink:href="#DejaVuSans-76" transform="translate(1515.474609 0)"/>
     <use xlink:href="#DejaVuSans-61" transform="translate(1574.654297 0)"/>
     <use xlink:href="#DejaVuSans-69" transform="translate(1635.933594 0)"/>
     <use xlink:href="#DejaVuSans-6c" transform="translate(1663.716797 0)"/>
     <use xlink:href="#DejaVuSans-61" transform="translate(1691.5 0)"/>
     <use xlink:href="#DejaVuSans-62" transform="translate(1752.779297 0)"/>
     <use xlink:href="#DejaVuSans-6c" transform="translate(1816.255859 0)"/>
     <use xlink:href="#DejaVuSans-65" transform="translate(1844.039062 0)"/>
    </g>
    <!--  -->
    <g style="fill: #808080" transform="translate(286.2 257.149219) scale(0.12 -0.12)"/>
    <!-- Will be generated after -->
    <g style="fill: #808080" transform="translate(216.99375 270.586594) scale(0.12 -0.12)">
     <defs>
      <path id="DejaVuSans-57" d="M 213 4666 
L 850 4666 
L 1831 722 
L 2809 4666 
L 3519 4666 
L 4500 722 
L 5478 4666 
L 6119 4666 
L 4947 0 
L 4153 0 
L 3169 4050 
L 2175 0 
L 1381 0 
L 213 4666 
z
" transform="scale(0.015625)"/>
      <path id="DejaVuSans-67" d="M 2906 1791 
Q 2906 2416 2648 2759 
Q 2391 3103 1925 3103 
Q 1463 3103 1205 2759 
Q 947 2416 947 1791 
Q 947 1169 1205 825 
Q 1463 481 1925 481 
Q 2391 481 2648 825 
Q 2906 1169 2906 1791 
z
M 3481 434 
Q 3481 -459 3084 -895 
Q 2688 -1331 1869 -1331 
Q 1566 -1331 1297 -1286 
Q 1028 -1241 775 -1147 
L 775 -588 
Q 1028 -725 1275 -790 
Q 1522 -856 1778 -856 
Q 2344 -856 2625 -561 
Q 2906 -266 2906 331 
L 2906 616 
Q 2728 306 2450 153 
Q 2172 0 1784 0 
Q 1141 0 747 490 
Q 353 981 353 1791 
Q 353 2603 747 3093 
Q 1141 3584 1784 3584 
Q 2172 3584 2450 3431 
Q 2728 3278 2906 2969 
L 2906 3500 
L 3481 3500 
L 3481 434 
z
" transform="scale(0.015625)"/>
      <path id="DejaVuSans-66" d="M 2375 4863 
L 2375 4384 
L 1825 4384 
Q 1516 4384 1395 4259 
Q 1275 4134 1275 3809 
L 1275 3500 
L 2222 3500 
L 2222 3053 
L 1275 3053 
L 1275 0 
L 697 0 
L 697 3053 
L 147 3053 
L 147 3500 
L 697 3500 
L 697 3744 
Q 697 4328 969 4595 
Q 1241 4863 1831 4863 
L 2375 4863 
z
" transform="scale(0.015625)"/>
     </defs>
     <use xlink:href="#DejaVuSans-57"/>
     <use xlink:href="#DejaVuSans-69" transform="translate(96.626953 0)"/>
     <use xlink:href="#DejaVuSans-6c" transform="translate(124.410156 0)"/>
     <use xlink:href="#DejaVuSans-6c" transform="translate(152.193359 0)"/>
     <use xlink:href="#DejaVuSans-20" transform="translate(179.976562 0)"/>
     <use xlink:href="#DejaVuSans-62" transform="translate(211.763672 0)"/>
     <use xlink:href="#DejaVuSans-65" transform="translate(275.240234 0)"/>
     <use xlink:href="#DejaVuSans-20" transform="translate(336.763672 0)"/>
     <use xlink:href="#DejaVuSans-67" transform="translate(368.550781 0)"/>
     <use xlink:href="#DejaVuSans-65" transform="translate(432.027344 0)"/>
     <use xlink:href="#DejaVuSans-6e" transform="translate(493.550781 0)"/>
     <use xlink:href="#DejaVuSans-65" transform="translate(556.929688 0)"/>
     <use xlink:href="#DejaVuSans-72" transform="translate(618.453125 0)"/>
     <use xlink:href="#DejaVuSans-61" transform="translate(659.566406 0)"/>
     <use xlink:href="#DejaVuSans-74" transform="translate(720.845703 0)"/>
     <use xlink:href="#DejaVuSans-65" transform="translate(760.054688 0)"/>
     <use xlink:href="#DejaVuSans-64" transform="translate(821.578125 0)"/>
     <use xlink:href="#DejaVuSans-20" transform="translate(885.054688 0)"/>
     <use xlink:href="#DejaVuSans-61" transform="translate(916.841797 0)"/>
     <use xlink:href="#DejaVuSans-66" transform="translate(978.121094 0)"/>
     <use xlink:href="#DejaVuSans-74" transform="translate(1011.576172 0)"/>
     <use xlink:href="#DejaVuSans-65" transform="translate(1050.785156 0)"/>
     <use xlink:href="#DejaVuSans-72" transform="translate(1112.308594 0)"/>
    </g>
    <!-- data download and processing. -->
    <g style="fill: #808080" transform="translate(192.422812 284.023969) scale(0.12 -0.12)">
     <defs>
      <path id="DejaVuSans-77" d="M 269 3500 
L 844 3500 
L 1563 769 
L 2278 3500 
L 2956 3500 
L 3675 769 
L 4391 3500 
L 4966 3500 
L 4050 0 
L 3372 0 
L 2619 2869 
L 1863 0 
L 1184 0 
L 269 3500 
z
" transform="scale(0.015625)"/>
      <path id="DejaVuSans-70" d="M 1159 525 
L 1159 -1331 
L 581 -1331 
L 581 3500 
L 1159 3500 
L 1159 2969 
Q 1341 3281 1617 3432 
Q 1894 3584 2278 3584 
Q 2916 3584 3314 3078 
Q 3713 2572 3713 1747 
Q 3713 922 3314 415 
Q 2916 -91 2278 -91 
Q 1894 -91 1617 61 
Q 1341 213 1159 525 
z
M 3116 1747 
Q 3116 2381 2855 2742 
Q 2594 3103 2138 3103 
Q 1681 3103 1420 2742 
Q 1159 2381 1159 1747 
Q 1159 1113 1420 752 
Q 1681 391 2138 391 
Q 2594 391 2855 752 
Q 3116 1113 3116 1747 
z
" transform="scale(0.015625)"/>
      <path id="DejaVuSans-63" d="M 3122 3366 
L 3122 2828 
Q 2878 2963 2633 3030 
Q 2388 3097 2138 3097 
Q 1578 3097 1268 2742 
Q 959 2388 959 1747 
Q 959 1106 1268 751 
Q 1578 397 2138 397 
Q 2388 397 2633 464 
Q 2878 531 3122 666 
L 3122 134 
Q 2881 22 2623 -34 
Q 2366 -91 2075 -91 
Q 1284 -91 818 406 
Q 353 903 353 1747 
Q 353 2603 823 3093 
Q 1294 3584 2113 3584 
Q 2378 3584 2631 3529 
Q 2884 3475 3122 3366 
z
" transform="scale(0.015625)"/>
      <path id="DejaVuSans-73" d="M 2834 3397 
L 2834 2853 
Q 2591 2978 2328 3040 
Q 2066 3103 1784 3103 
Q 1356 3103 1142 2972 
Q 928 2841 928 2578 
Q 928 2378 1081 2264 
Q 1234 2150 1697 2047 
L 1894 2003 
Q 2506 1872 2764 1633 
Q 3022 1394 3022 966 
Q 3022 478 2636 193 
Q 2250 -91 1575 -91 
Q 1294 -91 989 -36 
Q 684 19 347 128 
L 347 722 
Q 666 556 975 473 
Q 1284 391 1588 391 
Q 1994 391 2212 530 
Q 2431 669 2431 922 
Q 2431 1156 2273 1281 
Q 2116 1406 1581 1522 
L 1381 1569 
Q 847 1681 609 1914 
Q 372 2147 372 2553 
Q 372 3047 722 3315 
Q 1072 3584 1716 3584 
Q 2034 3584 2315 3537 
Q 2597 3491 2834 3397 
z
" transform="scale(0.015625)"/>
      <path id="DejaVuSans-2e" d="M 684 794 
L 1344 794 
L 1344 0 
L 684 0 
L 684 794 
z
" transform="scale(0.015625)"/>
     </defs>
     <use xlink:href="#DejaVuSans-64"/>
     <use xlink:href="#DejaVuSans-61" transform="translate(63.476562 0)"/>
     <use xlink:href="#DejaVuSans-74" transform="translate(124.755859 0)"/>
     <use xlink:href="#DejaVuSans-61" transform="translate(163.964844 0)"/>
     <use xlink:href="#DejaVuSans-20" transform="translate(225.244141 0)"/>
     <use xlink:href="#DejaVuSans-64" transform="translate(257.03125 0)"/>
     <use xlink:href="#DejaVuSans-6f" transform="translate(320.507812 0)"/>
     <use xlink:href="#DejaVuSans-77" transform="translate(381.689453 0)"/>
     <use xlink:href="#DejaVuSans-6e" transform="translate(463.476562 0)"/>
     <use xlink:href="#DejaVuSans-6c" transform="translate(526.855469 0)"/>
     <use xlink:href="#DejaVuSans-6f" transform="translate(554.638672 0)"/>
     <use xlink:href="#DejaVuSans-61" transform="translate(615.820312 0)"/>
     <use xlink:href="#DejaVuSans-64" transform="translate(677.099609 0)"/>
     <use xlink:href="#DejaVuSans-20" transform="translate(740.576172 0)"/>
     <use xlink:href="#DejaVuSans-61" transform="translate(772.363281 0)"/>
     <use xlink:href="#DejaVuSans-6e" transform="translate(833.642578 0)"/>
     <use xlink:href="#DejaVuSans-64" transform="translate(897.021484 0)"/>
     <use xlink:href="#DejaVuSans-20" transform="translate(960.498047 0)"/>
     <use xlink:href="#DejaVuSans-70" transform="translate(992.285156 0)"/>
     <use xlink:href="#DejaVuSans-72" transform="translate(1055.761719 0)"/>
     <use xlink:href="#DejaVuSans-6f" transform="translate(1094.625 0)"/>
     <use xlink:href="#DejaVuSans-63" transform="translate(1155.806641 0)"/>
     <use xlink:href="#DejaVuSans-65" transform="translate(1210.787109 0)"/>
     <use xlink:href="#DejaVuSans-73" transform="translate(1272.310547 0)"/>
     <use xlink:href="#DejaVuSans-73" transform="translate(1324.410156 0)"/>
     <use xlink:href="#DejaVuSans-69" transform="translate(1376.509766 0)"/>
     <use xlink:href="#DejaVuSans-6e" transform="translate(1404.292969 0)"/>
     <use xlink:href="#DejaVuSans-67" transform="translate(1467.671875 0)"/>
     <use xlink:href="#DejaVuSans-2e" transform="translate(1531.148438 0)"/>
    </g>
   </g>
   <g id="text_2">
    <!-- Fig4 Trends -->
    <g transform="translate(249.630391 17.077969) scale(0.13 -0.13)">
     <defs>
      <path id="DejaVuSans-46" d="M 628 4666 
L 3309 4666 
L 3309 4134 
L 1259 4134 
L 1259 2759 
L 3109 2759 
L 3109 2228 
L 1259 2228 
L 1259 0 
L 628 0 
L 628 4666 
z
" transform="scale(0.015625)"/>
      <path id="DejaVuSans-34" d="M 2419 4116 
L 825 1625 
L 2419 1625 
L 2419 4116 
z
M 2253 4666 
L 3047 4666 
L 3047 1625 
L 3713 1625 
L 3713 1100 
L 3047 1100 
L 3047 0 
L 2419 0 
L 2419 1100 
L 313 1100 
L 313 1709 
L 2253 4666 
z
" transform="scale(0.015625)"/>
      <path id="DejaVuSans-54" d="M -19 4666 
L 3928 4666 
L 3928 4134 
L 2272 4134 
L 2272 0 
L 1638 0 
L 1638 4134 
L -19 4134 
L -19 4666 
z
" transform="scale(0.015625)"/>
     </defs>
     <use xlink:href="#DejaVuSans-46"/>
     <use xlink:href="#DejaVuSans-69" transform="translate(50.269531 0)"/>
     <use xlink:href="#DejaVuSans-67" transform="translate(78.052734 0)"/>
     <use xlink:href="#DejaVuSans-34" transform="translate(141.529297 0)"/>
     <use xlink:href="#DejaVuSans-20" transform="translate(205.152344 0)"/>
     <use xlink:href="#DejaVuSans-54" transform="translate(236.939453 0)"/>
     <use xlink:href="#DejaVuSans-72" transform="translate(283.273438 0)"/>
     <use xlink:href="#DejaVuSans-65" transform="translate(322.136719 0)"/>
     <use xlink:href="#DejaVuSans-6e" transform="translate(383.660156 0)"/>
     <use xlink:href="#DejaVuSans-64" transform="translate(447.039062 0)"/>
     <use xlink:href="#DejaVuSans-73" transform="translate(510.515625 0)"/>
    </g>
   </g>
  </g>
 </g>
</svg>
